<svg width="413" height="166" viewBox="0 0 413 166" fill="none" xmlns="http://www.w3.org/2000/svg">
<path d="M65.226 153.494C65.146 153.754 65.106 154.014 65.106 154.274C65.106 154.494 65.136 154.684 65.196 154.844C65.256 154.984 65.316 155.104 65.376 155.204C65.456 155.284 65.506 155.344 65.526 155.384C65.726 155.584 65.826 155.784 65.826 155.984C65.826 156.024 65.806 156.124 65.766 156.284C65.686 156.564 65.506 156.764 65.226 156.884C64.966 156.984 64.556 157.034 63.996 157.034H56.886C56.466 157.034 56.136 156.964 55.896 156.824C55.676 156.684 55.566 156.494 55.566 156.254C55.566 156.134 55.596 156.004 55.656 155.864C55.716 155.704 55.796 155.584 55.896 155.504C56.016 155.404 56.176 155.294 56.376 155.174C56.696 154.994 56.956 154.794 57.156 154.574C57.356 154.354 57.526 153.994 57.666 153.494L58.446 150.914H53.766L52.956 152.624C52.616 153.364 52.446 153.944 52.446 154.364C52.446 154.604 52.486 154.804 52.566 154.964C52.646 155.104 52.766 155.254 52.926 155.414C53.066 155.574 53.156 155.714 53.196 155.834C53.256 155.934 53.266 156.074 53.226 156.254C53.146 156.554 52.976 156.764 52.716 156.884C52.476 156.984 52.086 157.034 51.546 157.034H47.076C46.616 157.034 46.266 156.954 46.026 156.794C45.786 156.614 45.666 156.384 45.666 156.104C45.666 155.784 45.786 155.534 46.026 155.354C46.246 155.154 46.586 154.944 47.046 154.724C47.646 154.424 48.126 154.134 48.486 153.854C48.846 153.554 49.156 153.144 49.416 152.624L54.756 141.554C55.576 139.834 56.536 138.594 57.636 137.834C58.756 137.054 60.226 136.664 62.046 136.664C64.086 136.664 65.666 137.084 66.786 137.924C67.906 138.744 68.466 139.894 68.466 141.374C68.466 141.994 68.366 142.634 68.166 143.294L65.226 153.494ZM59.346 147.914L60.936 142.634C61.016 142.394 61.056 142.144 61.056 141.884C61.056 141.504 60.946 141.224 60.726 141.044C60.526 140.844 60.236 140.744 59.856 140.744C59.376 140.744 58.966 140.884 58.626 141.164C58.286 141.444 57.946 141.944 57.606 142.664L55.146 147.914H59.346ZM90.7633 143.144C90.4433 144.304 89.8433 145.214 88.9633 145.874C88.0833 146.514 86.9733 146.914 85.6333 147.074C86.5933 147.154 87.3133 147.434 87.7933 147.914C88.2733 148.394 88.5133 149.024 88.5133 149.804C88.5133 150.104 88.4633 150.474 88.3633 150.914L88.0333 152.384C87.9933 152.584 87.9733 152.724 87.9733 152.804C87.9733 153.064 88.0333 153.264 88.1533 153.404C88.2733 153.524 88.4433 153.584 88.6633 153.584C89.0833 153.584 89.3833 153.644 89.5633 153.764C89.7633 153.884 89.8333 154.104 89.7733 154.424C89.6933 154.884 89.4533 155.334 89.0533 155.774C88.6533 156.214 88.0833 156.584 87.3433 156.884C86.6233 157.164 85.7433 157.304 84.7033 157.304C83.3833 157.304 82.3333 157.014 81.5533 156.434C80.7733 155.834 80.3833 154.984 80.3833 153.884C80.3833 153.464 80.4433 153.014 80.5633 152.534L81.0433 150.614C81.1233 150.354 81.1633 150.084 81.1633 149.804C81.1633 149.344 81.0033 149.014 80.6833 148.814C80.3833 148.614 79.8933 148.514 79.2133 148.514H78.0733L76.6933 153.494C76.6533 153.614 76.6333 153.764 76.6333 153.944C76.6333 154.224 76.7033 154.464 76.8433 154.664C76.9833 154.864 77.1733 155.074 77.4133 155.294C77.5933 155.434 77.7333 155.574 77.8333 155.714C77.9333 155.834 77.9833 155.964 77.9833 156.104C77.9833 156.444 77.8233 156.684 77.5033 156.824C77.1833 156.964 76.7133 157.034 76.0933 157.034H68.5633C68.0433 157.034 67.6533 156.944 67.3933 156.764C67.1333 156.564 67.0433 156.294 67.1233 155.954C67.1633 155.774 67.2433 155.634 67.3633 155.534C67.4633 155.414 67.6233 155.284 67.8433 155.144C68.1833 154.944 68.4533 154.734 68.6533 154.514C68.8533 154.294 69.0133 153.954 69.1333 153.494L72.7933 140.564C72.8733 140.304 72.9133 140.054 72.9133 139.814C72.9133 139.594 72.8733 139.414 72.7933 139.274C72.7333 139.114 72.6433 138.934 72.5233 138.734C72.3433 138.474 72.2533 138.264 72.2533 138.104C72.2533 138.044 72.2733 137.934 72.3133 137.774C72.3933 137.514 72.5633 137.334 72.8233 137.234C73.1033 137.114 73.5233 137.054 74.0833 137.054H84.1333C85.5133 137.054 86.7133 137.264 87.7333 137.684C88.7733 138.104 89.5633 138.684 90.1033 139.424C90.6633 140.144 90.9433 140.964 90.9433 141.884C90.9433 142.304 90.8833 142.724 90.7633 143.144ZM83.0833 142.844C83.1833 142.384 83.2333 142.034 83.2333 141.794C83.2333 140.734 82.6533 140.204 81.4933 140.204H80.2333L78.9133 145.514H80.1733C80.9533 145.514 81.5633 145.324 82.0033 144.944C82.4633 144.564 82.8233 143.864 83.0833 142.844ZM111.817 137.054C112.477 137.054 113.007 137.234 113.407 137.594C113.807 137.934 114.007 138.374 114.007 138.914C114.007 139.674 113.637 140.424 112.897 141.164L99.8769 154.154H103.417C103.797 154.154 104.127 154.084 104.407 153.944C104.707 153.784 105.027 153.514 105.367 153.134L107.167 151.154C107.487 150.814 107.787 150.574 108.067 150.434C108.367 150.274 108.727 150.194 109.147 150.194C109.587 150.194 109.947 150.294 110.227 150.494C110.507 150.694 110.647 150.994 110.647 151.394C110.647 151.554 110.617 151.744 110.557 151.964L109.687 154.994C109.467 155.754 109.147 156.284 108.727 156.584C108.307 156.884 107.697 157.034 106.897 157.034H93.4569C92.5969 157.034 91.9469 156.864 91.5069 156.524C91.0869 156.164 90.8769 155.684 90.8769 155.084C90.8769 154.724 90.9669 154.374 91.1469 154.034C91.3469 153.674 91.6569 153.274 92.0769 152.834L104.287 139.934H101.497C101.117 139.934 100.777 140.014 100.477 140.174C100.197 140.314 99.8869 140.574 99.5469 140.954L97.7469 142.934C97.4269 143.274 97.1169 143.524 96.8169 143.684C96.5369 143.824 96.1869 143.894 95.7669 143.894C95.3269 143.894 94.9669 143.794 94.6869 143.594C94.4069 143.394 94.2669 143.094 94.2669 142.694C94.2669 142.514 94.2969 142.324 94.3569 142.124L95.2269 139.094C95.4469 138.334 95.7669 137.804 96.1869 137.504C96.6069 137.204 97.2169 137.054 98.0169 137.054H111.817ZM126.34 136.604C128.86 136.604 130.83 137.204 132.25 138.404C133.67 139.584 134.38 141.294 134.38 143.534C134.38 144.594 134.22 145.734 133.9 146.954C133.3 149.194 132.37 151.094 131.11 152.654C129.85 154.214 128.35 155.394 126.61 156.194C124.87 156.994 122.98 157.394 120.94 157.394C118.44 157.394 116.48 156.804 115.06 155.624C113.64 154.424 112.93 152.704 112.93 150.464C112.93 149.444 113.1 148.274 113.44 146.954C114.02 144.734 114.93 142.854 116.17 141.314C117.43 139.754 118.92 138.584 120.64 137.804C122.38 137.004 124.28 136.604 126.34 136.604ZM125.8 139.544C125.2 139.544 124.66 139.784 124.18 140.264C123.7 140.744 123.22 141.534 122.74 142.634C122.28 143.714 121.78 145.224 121.24 147.164C120.44 149.964 120.04 151.894 120.04 152.954C120.04 153.574 120.15 154.024 120.37 154.304C120.59 154.584 120.94 154.724 121.42 154.724C122.02 154.724 122.56 154.484 123.04 154.004C123.52 153.504 123.99 152.714 124.45 151.634C124.91 150.554 125.42 149.064 125.98 147.164C126.76 144.404 127.15 142.464 127.15 141.344C127.15 140.704 127.04 140.244 126.82 139.964C126.6 139.684 126.26 139.544 125.8 139.544ZM155.901 137.054C156.721 137.054 157.131 137.314 157.131 137.834C157.131 137.974 157.121 138.074 157.101 138.134C157.041 138.334 156.951 138.494 156.831 138.614C156.711 138.714 156.541 138.834 156.321 138.974C156.021 139.154 155.771 139.354 155.571 139.574C155.371 139.794 155.201 140.134 155.061 140.594L151.341 153.914C151.001 155.114 150.571 155.954 150.051 156.434C149.551 156.914 148.851 157.154 147.951 157.154C147.151 157.154 146.481 156.924 145.941 156.464C145.421 155.984 144.931 155.254 144.471 154.274L139.941 144.734L137.421 153.494C137.361 153.754 137.331 153.984 137.331 154.184C137.331 154.444 137.371 154.664 137.451 154.844C137.551 155.004 137.681 155.174 137.841 155.354C138.061 155.614 138.171 155.834 138.171 156.014C138.171 156.134 138.161 156.224 138.141 156.284C138.061 156.564 137.881 156.764 137.601 156.884C137.321 156.984 136.901 157.034 136.341 157.034H133.071C132.251 157.034 131.841 156.774 131.841 156.254C131.841 156.114 131.851 156.014 131.871 155.954C131.931 155.754 132.021 155.604 132.141 155.504C132.261 155.384 132.431 155.254 132.651 155.114C132.951 154.934 133.201 154.734 133.401 154.514C133.601 154.294 133.771 153.954 133.911 153.494L137.721 140.024L137.241 139.034C137.041 138.634 136.941 138.284 136.941 137.984C136.941 137.364 137.341 137.054 138.141 137.054H142.581C143.221 137.054 143.701 137.204 144.021 137.504C144.361 137.784 144.721 138.294 145.101 139.034L149.481 147.824L151.551 140.594C151.611 140.314 151.641 140.084 151.641 139.904C151.641 139.644 151.591 139.434 151.491 139.274C151.411 139.094 151.291 138.914 151.131 138.734C150.911 138.474 150.801 138.254 150.801 138.074C150.801 137.954 150.811 137.864 150.831 137.804C150.911 137.524 151.091 137.334 151.371 137.234C151.651 137.114 152.071 137.054 152.631 137.054H155.901ZM176.503 137.054C178.623 137.054 180.253 137.514 181.393 138.434C182.553 139.354 183.133 140.574 183.133 142.094C183.133 142.694 183.043 143.324 182.863 143.984C182.303 145.984 181.193 147.464 179.533 148.424C177.893 149.384 175.813 149.864 173.293 149.864H170.203L169.183 153.494C169.143 153.614 169.123 153.774 169.123 153.974C169.123 154.254 169.183 154.484 169.303 154.664C169.443 154.844 169.643 155.054 169.903 155.294C170.123 155.494 170.273 155.644 170.353 155.744C170.433 155.844 170.473 155.964 170.473 156.104C170.473 156.444 170.313 156.684 169.993 156.824C169.673 156.964 169.203 157.034 168.583 157.034H161.053C160.533 157.034 160.143 156.944 159.883 156.764C159.623 156.564 159.533 156.294 159.613 155.954C159.653 155.774 159.733 155.634 159.853 155.534C159.953 155.414 160.113 155.284 160.333 155.144C160.673 154.944 160.943 154.734 161.143 154.514C161.343 154.294 161.503 153.954 161.623 153.494L165.283 140.564C165.363 140.304 165.403 140.054 165.403 139.814C165.403 139.594 165.363 139.414 165.283 139.274C165.223 139.114 165.133 138.934 165.013 138.734C164.833 138.474 164.743 138.264 164.743 138.104C164.743 138.044 164.763 137.934 164.803 137.774C164.883 137.514 165.053 137.334 165.313 137.234C165.593 137.114 166.013 137.054 166.573 137.054H176.503ZM175.723 143.444C175.943 142.704 176.053 142.054 176.053 141.494C176.053 140.334 175.513 139.754 174.433 139.754H173.083L170.953 147.164H172.273C173.113 147.164 173.793 146.904 174.313 146.384C174.853 145.844 175.323 144.864 175.723 143.444ZM196.447 153.494C196.367 153.754 196.327 154.014 196.327 154.274C196.327 154.494 196.357 154.684 196.417 154.844C196.477 154.984 196.537 155.104 196.597 155.204C196.677 155.284 196.727 155.344 196.747 155.384C196.947 155.584 197.047 155.784 197.047 155.984C197.047 156.024 197.027 156.124 196.987 156.284C196.907 156.564 196.727 156.764 196.447 156.884C196.187 156.984 195.777 157.034 195.217 157.034H188.107C187.687 157.034 187.357 156.964 187.117 156.824C186.897 156.684 186.787 156.494 186.787 156.254C186.787 156.134 186.817 156.004 186.877 155.864C186.937 155.704 187.017 155.584 187.117 155.504C187.237 155.404 187.397 155.294 187.597 155.174C187.917 154.994 188.177 154.794 188.377 154.574C188.577 154.354 188.747 153.994 188.887 153.494L189.667 150.914H184.987L184.177 152.624C183.837 153.364 183.667 153.944 183.667 154.364C183.667 154.604 183.707 154.804 183.787 154.964C183.867 155.104 183.987 155.254 184.147 155.414C184.287 155.574 184.377 155.714 184.417 155.834C184.477 155.934 184.487 156.074 184.447 156.254C184.367 156.554 184.197 156.764 183.937 156.884C183.697 156.984 183.307 157.034 182.767 157.034H178.297C177.837 157.034 177.487 156.954 177.247 156.794C177.007 156.614 176.887 156.384 176.887 156.104C176.887 155.784 177.007 155.534 177.247 155.354C177.467 155.154 177.807 154.944 178.267 154.724C178.867 154.424 179.347 154.134 179.707 153.854C180.067 153.554 180.377 153.144 180.637 152.624L185.977 141.554C186.797 139.834 187.757 138.594 188.857 137.834C189.977 137.054 191.447 136.664 193.267 136.664C195.307 136.664 196.887 137.084 198.007 137.924C199.127 138.744 199.687 139.894 199.687 141.374C199.687 141.994 199.587 142.634 199.387 143.294L196.447 153.494ZM190.567 147.914L192.157 142.634C192.237 142.394 192.277 142.144 192.277 141.884C192.277 141.504 192.167 141.224 191.947 141.044C191.747 140.844 191.457 140.744 191.077 140.744C190.597 140.744 190.187 140.884 189.847 141.164C189.507 141.444 189.167 141.944 188.827 142.664L186.367 147.914H190.567ZM221.984 143.144C221.664 144.304 221.064 145.214 220.184 145.874C219.304 146.514 218.194 146.914 216.854 147.074C217.814 147.154 218.534 147.434 219.014 147.914C219.494 148.394 219.734 149.024 219.734 149.804C219.734 150.104 219.684 150.474 219.584 150.914L219.254 152.384C219.214 152.584 219.194 152.724 219.194 152.804C219.194 153.064 219.254 153.264 219.374 153.404C219.494 153.524 219.664 153.584 219.884 153.584C220.304 153.584 220.604 153.644 220.784 153.764C220.984 153.884 221.054 154.104 220.994 154.424C220.914 154.884 220.674 155.334 220.274 155.774C219.874 156.214 219.304 156.584 218.564 156.884C217.844 157.164 216.964 157.304 215.924 157.304C214.604 157.304 213.554 157.014 212.774 156.434C211.994 155.834 211.604 154.984 211.604 153.884C211.604 153.464 211.664 153.014 211.784 152.534L212.264 150.614C212.344 150.354 212.384 150.084 212.384 149.804C212.384 149.344 212.224 149.014 211.904 148.814C211.604 148.614 211.114 148.514 210.434 148.514H209.294L207.914 153.494C207.874 153.614 207.854 153.764 207.854 153.944C207.854 154.224 207.924 154.464 208.064 154.664C208.204 154.864 208.394 155.074 208.634 155.294C208.814 155.434 208.954 155.574 209.054 155.714C209.154 155.834 209.204 155.964 209.204 156.104C209.204 156.444 209.044 156.684 208.724 156.824C208.404 156.964 207.934 157.034 207.314 157.034H199.784C199.264 157.034 198.874 156.944 198.614 156.764C198.354 156.564 198.264 156.294 198.344 155.954C198.384 155.774 198.464 155.634 198.584 155.534C198.684 155.414 198.844 155.284 199.064 155.144C199.404 154.944 199.674 154.734 199.874 154.514C200.074 154.294 200.234 153.954 200.354 153.494L204.014 140.564C204.094 140.304 204.134 140.054 204.134 139.814C204.134 139.594 204.094 139.414 204.014 139.274C203.954 139.114 203.864 138.934 203.744 138.734C203.564 138.474 203.474 138.264 203.474 138.104C203.474 138.044 203.494 137.934 203.534 137.774C203.614 137.514 203.784 137.334 204.044 137.234C204.324 137.114 204.744 137.054 205.304 137.054H215.354C216.734 137.054 217.934 137.264 218.954 137.684C219.994 138.104 220.784 138.684 221.324 139.424C221.884 140.144 222.164 140.964 222.164 141.884C222.164 142.304 222.104 142.724 221.984 143.144ZM214.304 142.844C214.404 142.384 214.454 142.034 214.454 141.794C214.454 140.734 213.874 140.204 212.714 140.204H211.454L210.134 145.514H211.394C212.174 145.514 212.784 145.324 213.224 144.944C213.684 144.564 214.044 143.864 214.304 142.844ZM244.662 139.934C244.662 140.654 244.502 141.274 244.182 141.794C243.882 142.314 243.492 142.714 243.012 142.994C242.532 143.254 242.052 143.384 241.572 143.384C241.092 143.384 240.652 143.284 240.252 143.084C239.872 142.884 239.552 142.614 239.292 142.274L232.062 154.454C231.522 155.374 231.022 156.034 230.562 156.434C230.102 156.834 229.582 157.034 229.002 157.034C228.382 157.034 227.882 156.834 227.502 156.434C227.142 156.014 226.882 155.354 226.722 154.454L224.202 140.594C224.142 140.234 224.032 139.944 223.872 139.724C223.712 139.504 223.502 139.264 223.242 139.004C223.042 138.824 222.902 138.684 222.822 138.584C222.742 138.464 222.702 138.324 222.702 138.164C222.602 137.424 223.042 137.054 224.022 137.054H231.522C231.982 137.054 232.332 137.154 232.572 137.354C232.812 137.534 232.922 137.784 232.902 138.104C232.902 138.284 232.862 138.434 232.782 138.554C232.722 138.674 232.612 138.824 232.452 139.004C232.272 139.204 232.132 139.394 232.032 139.574C231.932 139.754 231.882 139.974 231.882 140.234C231.882 140.354 231.892 140.454 231.912 140.534L233.052 147.524L237.042 140.444C237.742 139.164 238.432 138.264 239.112 137.744C239.792 137.204 240.632 136.934 241.632 136.934C242.552 136.934 243.282 137.204 243.822 137.744C244.382 138.264 244.662 138.994 244.662 139.934ZM256.33 136.604C258.85 136.604 260.82 137.204 262.24 138.404C263.66 139.584 264.37 141.294 264.37 143.534C264.37 144.594 264.21 145.734 263.89 146.954C263.29 149.194 262.36 151.094 261.1 152.654C259.84 154.214 258.34 155.394 256.6 156.194C254.86 156.994 252.97 157.394 250.93 157.394C248.43 157.394 246.47 156.804 245.05 155.624C243.63 154.424 242.92 152.704 242.92 150.464C242.92 149.444 243.09 148.274 243.43 146.954C244.01 144.734 244.92 142.854 246.16 141.314C247.42 139.754 248.91 138.584 250.63 137.804C252.37 137.004 254.27 136.604 256.33 136.604ZM255.79 139.544C255.19 139.544 254.65 139.784 254.17 140.264C253.69 140.744 253.21 141.534 252.73 142.634C252.27 143.714 251.77 145.224 251.23 147.164C250.43 149.964 250.03 151.894 250.03 152.954C250.03 153.574 250.14 154.024 250.36 154.304C250.58 154.584 250.93 154.724 251.41 154.724C252.01 154.724 252.55 154.484 253.03 154.004C253.51 153.504 253.98 152.714 254.44 151.634C254.9 150.554 255.41 149.064 255.97 147.164C256.75 144.404 257.14 142.464 257.14 141.344C257.14 140.704 257.03 140.244 256.81 139.964C256.59 139.684 256.25 139.544 255.79 139.544ZM284.932 137.054C285.592 137.054 286.122 137.234 286.522 137.594C286.922 137.934 287.122 138.374 287.122 138.914C287.122 139.674 286.752 140.424 286.012 141.164L272.992 154.154H276.532C276.912 154.154 277.242 154.084 277.522 153.944C277.822 153.784 278.142 153.514 278.482 153.134L280.282 151.154C280.602 150.814 280.902 150.574 281.182 150.434C281.482 150.274 281.842 150.194 282.262 150.194C282.702 150.194 283.062 150.294 283.342 150.494C283.622 150.694 283.762 150.994 283.762 151.394C283.762 151.554 283.732 151.744 283.672 151.964L282.802 154.994C282.582 155.754 282.262 156.284 281.842 156.584C281.422 156.884 280.812 157.034 280.012 157.034H266.572C265.712 157.034 265.062 156.864 264.622 156.524C264.202 156.164 263.992 155.684 263.992 155.084C263.992 154.724 264.082 154.374 264.262 154.034C264.462 153.674 264.772 153.274 265.192 152.834L277.402 139.934H274.612C274.232 139.934 273.892 140.014 273.592 140.174C273.312 140.314 273.002 140.574 272.662 140.954L270.862 142.934C270.542 143.274 270.232 143.524 269.932 143.684C269.652 143.824 269.302 143.894 268.882 143.894C268.442 143.894 268.082 143.794 267.802 143.594C267.522 143.394 267.382 143.094 267.382 142.694C267.382 142.514 267.412 142.324 267.472 142.124L268.342 139.094C268.562 138.334 268.882 137.804 269.302 137.504C269.722 137.204 270.332 137.054 271.132 137.054H284.932ZM302.65 149.294C303.21 149.294 303.63 149.414 303.91 149.654C304.21 149.874 304.36 150.194 304.36 150.614C304.36 150.794 304.33 150.994 304.27 151.214L303.28 154.724C303.02 155.584 302.65 156.184 302.17 156.524C301.71 156.864 301.02 157.034 300.1 157.034H286C285.58 157.034 285.26 156.964 285.04 156.824C284.8 156.684 284.68 156.494 284.68 156.254C284.68 156.134 284.71 156.004 284.77 155.864C284.83 155.704 284.93 155.574 285.07 155.474C285.21 155.354 285.36 155.244 285.52 155.144C285.84 154.944 286.1 154.744 286.3 154.544C286.5 154.324 286.67 153.974 286.81 153.494L290.47 140.564C290.55 140.304 290.59 140.054 290.59 139.814C290.59 139.594 290.55 139.414 290.47 139.274C290.41 139.114 290.32 138.934 290.2 138.734C290.02 138.474 289.93 138.264 289.93 138.104C289.93 138.044 289.95 137.934 289.99 137.774C290.07 137.514 290.24 137.334 290.5 137.234C290.78 137.114 291.2 137.054 291.76 137.054H298.81C299.23 137.054 299.55 137.124 299.77 137.264C300.01 137.384 300.13 137.564 300.13 137.804C300.13 137.904 300.1 138.034 300.04 138.194C299.98 138.334 299.89 138.464 299.77 138.584C299.67 138.684 299.57 138.764 299.47 138.824C299.39 138.864 299.33 138.904 299.29 138.944C298.97 139.124 298.71 139.324 298.51 139.544C298.31 139.764 298.14 140.104 298 140.564L294.13 154.154H295.99C296.45 154.154 296.84 154.074 297.16 153.914C297.5 153.754 297.85 153.454 298.21 153.014L300.28 150.554C300.66 150.114 301.02 149.794 301.36 149.594C301.72 149.394 302.15 149.294 302.65 149.294ZM323.331 153.494C323.251 153.754 323.211 154.014 323.211 154.274C323.211 154.494 323.241 154.684 323.301 154.844C323.361 154.984 323.421 155.104 323.481 155.204C323.561 155.284 323.611 155.344 323.631 155.384C323.831 155.584 323.931 155.784 323.931 155.984C323.931 156.024 323.911 156.124 323.871 156.284C323.791 156.564 323.611 156.764 323.331 156.884C323.071 156.984 322.661 157.034 322.101 157.034H314.991C314.571 157.034 314.241 156.964 314.001 156.824C313.781 156.684 313.671 156.494 313.671 156.254C313.671 156.134 313.701 156.004 313.761 155.864C313.821 155.704 313.901 155.584 314.001 155.504C314.121 155.404 314.281 155.294 314.481 155.174C314.801 154.994 315.061 154.794 315.261 154.574C315.461 154.354 315.631 153.994 315.771 153.494L316.551 150.914H311.871L311.061 152.624C310.721 153.364 310.551 153.944 310.551 154.364C310.551 154.604 310.591 154.804 310.671 154.964C310.751 155.104 310.871 155.254 311.031 155.414C311.171 155.574 311.261 155.714 311.301 155.834C311.361 155.934 311.371 156.074 311.331 156.254C311.251 156.554 311.081 156.764 310.821 156.884C310.581 156.984 310.191 157.034 309.651 157.034H305.181C304.721 157.034 304.371 156.954 304.131 156.794C303.891 156.614 303.771 156.384 303.771 156.104C303.771 155.784 303.891 155.534 304.131 155.354C304.351 155.154 304.691 154.944 305.151 154.724C305.751 154.424 306.231 154.134 306.591 153.854C306.951 153.554 307.261 153.144 307.521 152.624L312.861 141.554C313.681 139.834 314.641 138.594 315.741 137.834C316.861 137.054 318.331 136.664 320.151 136.664C322.191 136.664 323.771 137.084 324.891 137.924C326.011 138.744 326.571 139.894 326.571 141.374C326.571 141.994 326.471 142.634 326.271 143.294L323.331 153.494ZM317.451 147.914L319.041 142.634C319.121 142.394 319.161 142.144 319.161 141.884C319.161 141.504 319.051 141.224 318.831 141.044C318.631 140.844 318.341 140.744 317.961 140.744C317.481 140.744 317.071 140.884 316.731 141.164C316.391 141.444 316.051 141.944 315.711 142.664L313.251 147.914H317.451ZM348.869 143.144C348.549 144.304 347.949 145.214 347.069 145.874C346.189 146.514 345.079 146.914 343.739 147.074C344.699 147.154 345.419 147.434 345.899 147.914C346.379 148.394 346.619 149.024 346.619 149.804C346.619 150.104 346.569 150.474 346.469 150.914L346.139 152.384C346.099 152.584 346.079 152.724 346.079 152.804C346.079 153.064 346.139 153.264 346.259 153.404C346.379 153.524 346.549 153.584 346.769 153.584C347.189 153.584 347.489 153.644 347.669 153.764C347.869 153.884 347.939 154.104 347.879 154.424C347.799 154.884 347.559 155.334 347.159 155.774C346.759 156.214 346.189 156.584 345.449 156.884C344.729 157.164 343.849 157.304 342.809 157.304C341.489 157.304 340.439 157.014 339.659 156.434C338.879 155.834 338.489 154.984 338.489 153.884C338.489 153.464 338.549 153.014 338.669 152.534L339.149 150.614C339.229 150.354 339.269 150.084 339.269 149.804C339.269 149.344 339.109 149.014 338.789 148.814C338.489 148.614 337.999 148.514 337.319 148.514H336.179L334.799 153.494C334.759 153.614 334.739 153.764 334.739 153.944C334.739 154.224 334.809 154.464 334.949 154.664C335.089 154.864 335.279 155.074 335.519 155.294C335.699 155.434 335.839 155.574 335.939 155.714C336.039 155.834 336.089 155.964 336.089 156.104C336.089 156.444 335.929 156.684 335.609 156.824C335.289 156.964 334.819 157.034 334.199 157.034H326.669C326.149 157.034 325.759 156.944 325.499 156.764C325.239 156.564 325.149 156.294 325.229 155.954C325.269 155.774 325.349 155.634 325.469 155.534C325.569 155.414 325.729 155.284 325.949 155.144C326.289 154.944 326.559 154.734 326.759 154.514C326.959 154.294 327.119 153.954 327.239 153.494L330.899 140.564C330.979 140.304 331.019 140.054 331.019 139.814C331.019 139.594 330.979 139.414 330.899 139.274C330.839 139.114 330.749 138.934 330.629 138.734C330.449 138.474 330.359 138.264 330.359 138.104C330.359 138.044 330.379 137.934 330.419 137.774C330.499 137.514 330.669 137.334 330.929 137.234C331.209 137.114 331.629 137.054 332.189 137.054H342.239C343.619 137.054 344.819 137.264 345.839 137.684C346.879 138.104 347.669 138.684 348.209 139.424C348.769 140.144 349.049 140.964 349.049 141.884C349.049 142.304 348.989 142.724 348.869 143.144ZM341.189 142.844C341.289 142.384 341.339 142.034 341.339 141.794C341.339 140.734 340.759 140.204 339.599 140.204H338.339L337.019 145.514H338.279C339.059 145.514 339.669 145.324 340.109 144.944C340.569 144.564 340.929 143.864 341.189 142.844Z" fill="#F1FAEE"/>
<path d="M39.9023 70.4821C39.9023 70.7457 39.7559 71.1119 39.4629 71.5807C39.1992 72.0494 38.8623 72.5328 38.4521 73.0309C38.0713 73.5289 37.6758 73.9977 37.2656 74.4371C36.8848 74.8766 36.5625 75.1989 36.2988 75.4039C36.1523 75.5211 35.9619 75.609 35.7275 75.6676C35.5225 75.7262 35.2734 75.858 34.9805 76.0631C34.8047 76.1803 34.6436 76.3414 34.4971 76.5465C34.3799 76.7223 34.2041 76.8834 33.9697 77.0299C33.7939 77.1764 33.5596 77.3229 33.2666 77.4694C33.0029 77.6158 32.7539 77.7623 32.5195 77.9088C32.2852 78.0553 32.0801 78.2164 31.9043 78.3922C31.7285 78.568 31.6406 78.7584 31.6406 78.9635C31.6406 79.2565 31.7285 79.5494 31.9043 79.8424C32.0801 80.1354 32.2852 80.4137 32.5195 80.6774C32.7539 80.941 33.0029 81.2047 33.2666 81.4684C33.5596 81.7321 33.7939 81.9957 33.9697 82.2594C34.2334 82.6403 34.4385 82.9918 34.585 83.3141C34.7607 83.6364 34.9072 83.9586 35.0244 84.2809C35.1709 84.6031 35.3027 84.9254 35.4199 85.2477C35.5371 85.5406 35.7129 85.8629 35.9473 86.2145C36.1816 86.5953 36.4014 87.0641 36.6064 87.6207C36.8408 88.1774 37.0752 88.6901 37.3096 89.1588C37.4268 89.4225 37.5146 89.5836 37.5732 89.6422C37.6318 89.6715 37.6904 89.774 37.749 89.9498C37.8076 90.1256 37.8662 90.4332 37.9248 90.8727C38.0127 91.3121 38.1299 92.0592 38.2764 93.1139C38.335 93.5533 38.4521 93.9489 38.6279 94.3004C38.8037 94.652 38.8916 94.9742 38.8916 95.2672C38.8916 95.3844 38.7744 95.6627 38.54 96.1022C38.3057 96.5416 37.998 97.025 37.6172 97.5524C37.2656 98.0797 36.8848 98.6071 36.4746 99.1344C36.0645 99.6617 35.6836 100.072 35.332 100.365C35.1562 100.482 34.9365 100.585 34.6729 100.672C34.4092 100.731 34.1748 100.834 33.9697 100.98C33.8232 101.127 33.7207 101.346 33.6621 101.639C33.6035 101.903 33.501 102.123 33.3545 102.298C33.1787 102.474 32.959 102.591 32.6953 102.65C32.4316 102.709 32.2119 102.811 32.0361 102.958C31.7139 103.221 31.3916 103.544 31.0693 103.924C30.7471 104.305 30.4102 104.642 30.0586 104.935C29.8828 105.082 29.6631 105.199 29.3994 105.287C29.1357 105.345 28.916 105.448 28.7402 105.594C28.623 105.682 28.5645 105.785 28.5645 105.902C28.5938 106.019 28.5498 106.136 28.4326 106.254C28.3154 106.341 28.0957 106.444 27.7734 106.561C27.4512 106.649 27.0703 106.766 26.6309 106.913C26.2207 107.03 25.7812 107.147 25.3125 107.264C24.873 107.381 24.4775 107.484 24.126 107.572C24.0674 107.572 23.9941 107.572 23.9062 107.572C23.8477 107.543 23.7744 107.528 23.6865 107.528C23.5107 107.528 23.2178 107.557 22.8076 107.616C22.4268 107.674 21.8994 107.748 21.2256 107.836C20.5811 107.953 19.7607 108.07 18.7646 108.187C17.7979 108.304 16.6406 108.422 15.293 108.539C14.9121 108.597 14.5459 108.671 14.1943 108.758C13.8428 108.846 13.5498 108.876 13.3154 108.846C12.8174 108.846 12.3193 108.788 11.8213 108.671C11.3232 108.583 10.8398 108.539 10.3711 108.539C9.69727 108.539 8.9209 108.597 8.04199 108.714C7.16309 108.861 6.24023 108.934 5.27344 108.934C5.03906 108.934 4.81934 108.905 4.61426 108.846C4.40918 108.817 4.30664 108.685 4.30664 108.451C4.30664 108.129 4.48242 107.865 4.83398 107.66C5.21484 107.455 5.53711 107.191 5.80078 106.869C6.03516 106.576 6.22559 106.254 6.37207 105.902C6.51855 105.521 6.75293 105.199 7.0752 104.935C7.28027 104.759 7.5 104.628 7.73438 104.54C7.99805 104.422 8.24707 104.32 8.48145 104.232C8.74512 104.115 8.97949 103.998 9.18457 103.88C9.38965 103.734 9.56543 103.544 9.71191 103.309C9.77051 103.192 9.81445 102.928 9.84375 102.518C9.90234 102.079 9.96094 101.61 10.0195 101.112C10.0781 100.585 10.1367 100.072 10.1953 99.5739C10.2539 99.0465 10.3125 98.651 10.3711 98.3873C10.459 97.9772 10.5762 97.5524 10.7227 97.1129C10.8691 96.6735 11.0156 96.2633 11.1621 95.8824C11.3086 95.4723 11.4258 95.1061 11.5137 94.7838C11.6309 94.4323 11.6895 94.1393 11.6895 93.9049C11.6895 93.6998 11.6748 93.4655 11.6455 93.2018C11.6162 92.9088 11.6016 92.6012 11.6016 92.2789C11.6016 91.8688 11.6602 91.5905 11.7773 91.444C11.9238 91.2682 11.9971 91.1656 11.9971 91.1364C12.0557 90.9313 12.1143 90.7408 12.1729 90.5651C12.2314 90.3893 12.2607 90.1989 12.2607 89.9938C12.2607 89.7008 12.1875 89.4518 12.041 89.2467C11.8945 89.0416 11.7188 88.8512 11.5137 88.6754C11.3379 88.4996 11.1768 88.3385 11.0303 88.192C10.8838 88.0162 10.8105 87.8258 10.8105 87.6207C10.8105 87.3571 10.9277 87.0934 11.1621 86.8297C11.3965 86.566 11.6455 86.3463 11.9092 86.1705C12.1729 85.9655 12.4219 85.8043 12.6562 85.6871C12.8906 85.5699 13.0078 85.5114 13.0078 85.5114C13.0078 85.4235 12.9932 85.3356 12.9639 85.2477C12.9639 85.1598 12.9639 85.0865 12.9639 85.028C12.9639 84.9108 13.0078 84.8229 13.0957 84.7643C13.1836 84.6764 13.2275 84.5592 13.2275 84.4127V83.8414C13.2275 83.6949 13.2275 83.5192 13.2275 83.3141C13.2275 83.109 13.2568 82.8746 13.3154 82.611C13.374 82.4645 13.4912 82.1569 13.667 81.6881C13.8721 81.1901 13.9746 80.7213 13.9746 80.2819C13.9746 80.0475 13.916 79.8131 13.7988 79.5787C13.7109 79.3151 13.667 79.066 13.667 78.8317C13.7256 78.7438 13.7988 78.4801 13.8867 78.0406C13.9746 77.6012 14.0625 77.0739 14.1504 76.4586C14.2676 75.8141 14.3701 75.111 14.458 74.3492C14.5752 73.5875 14.6777 72.8405 14.7656 72.108C14.8828 71.3756 14.9854 70.6871 15.0732 70.0426C15.1611 69.3981 15.2344 68.8854 15.293 68.5045C15.3223 68.2994 15.4248 68.0651 15.6006 67.8014C15.7764 67.5084 15.8936 67.2008 15.9521 66.8785C16.0107 66.5856 16.0547 66.2194 16.084 65.7799C16.1426 65.3405 16.1719 64.9303 16.1719 64.5494C16.2012 64.1686 16.2158 63.861 16.2158 63.6266C16.2451 63.3629 16.2598 63.2457 16.2598 63.275C16.1133 63.0114 15.8936 62.8356 15.6006 62.7477C15.3076 62.6598 14.9854 62.6158 14.6338 62.6158C14.1357 62.6158 13.5791 62.6744 12.9639 62.7916C12.3779 62.8795 11.8359 62.9235 11.3379 62.9235C11.1621 62.9235 11.0449 62.9088 10.9863 62.8795C10.9277 62.8502 10.8545 62.8356 10.7666 62.8356C10.2686 62.8356 9.8291 62.9821 9.44824 63.275C9.06738 63.568 8.71582 63.8903 8.39355 64.2418C8.10059 64.5934 7.82227 64.9156 7.55859 65.2086C7.32422 65.5016 7.0752 65.6481 6.81152 65.6481C6.54785 65.6481 6.38672 65.5602 6.32812 65.3844C6.29883 65.2086 6.28418 65.0475 6.28418 64.901C6.28418 64.5201 6.40137 64.1686 6.63574 63.8463C6.87012 63.4948 7.14844 63.1725 7.4707 62.8795C7.79297 62.5865 8.12988 62.3082 8.48145 62.0446C8.83301 61.7809 9.12598 61.5319 9.36035 61.2975C9.59473 61.0924 9.8877 60.7848 10.2393 60.3746C10.6201 59.9645 11.0156 59.5543 11.4258 59.1442C11.8359 58.734 12.2461 58.3824 12.6562 58.0895C13.0957 57.7965 13.4912 57.65 13.8428 57.65C14.5166 57.65 15.249 57.7672 16.04 58.0016C16.8311 58.236 17.5635 58.3531 18.2373 58.3531C18.5596 58.2946 18.8232 58.2213 19.0283 58.1334C19.2334 58.0455 19.4385 57.9283 19.6436 57.7819C19.8779 57.6354 20.127 57.4596 20.3906 57.2545C20.6836 57.0201 21.0645 56.7272 21.5332 56.3756C21.6211 56.317 21.8115 56.2145 22.1045 56.068C22.3975 55.8922 22.5439 55.7604 22.5439 55.6725C22.5439 55.6139 22.5293 55.5406 22.5 55.4528C22.4707 55.3649 22.4561 55.2916 22.4561 55.233C22.4561 55.1158 22.5879 54.8961 22.8516 54.5739C23.1445 54.2516 23.3643 53.8707 23.5107 53.4313H23.6865C23.9502 53.4313 24.0967 53.5338 24.126 53.7389C24.0967 53.8561 24.082 54.0172 24.082 54.2223C24.082 54.486 24.0967 54.7496 24.126 55.0133C24.1553 55.2477 24.1699 55.526 24.1699 55.8483C24.1699 56.0826 24.126 56.3463 24.0381 56.6393C23.9795 56.903 23.9062 57.1813 23.8184 57.4742C23.7598 57.7379 23.6865 57.9723 23.5986 58.1774C23.54 58.3824 23.5107 58.5289 23.5107 58.6168C23.5107 58.7926 23.6133 58.9244 23.8184 59.0123C24.0234 59.1002 24.2725 59.1735 24.5654 59.2321C24.8877 59.2906 25.21 59.3492 25.5322 59.4078C25.8838 59.4371 26.1914 59.5104 26.4551 59.6276C26.3965 59.8033 26.6309 59.9938 27.1582 60.1989C27.6855 60.4039 28.3008 60.6383 29.0039 60.902C29.707 61.1364 30.3955 61.4 31.0693 61.693C31.7432 61.986 32.1826 62.2789 32.3877 62.5719C32.4756 62.7477 32.5049 62.9381 32.4756 63.1432C32.4756 63.319 32.5488 63.4655 32.6953 63.5826C32.8418 63.7291 33.0469 63.7877 33.3105 63.7584C33.5742 63.7291 33.7939 63.7877 33.9697 63.9342C34.1162 63.9928 34.1895 64.1246 34.1895 64.3297C34.1895 64.5055 34.2773 64.5934 34.4531 64.5934C34.5117 64.5934 34.5703 64.5934 34.6289 64.5934C34.7168 64.5641 34.79 64.5494 34.8486 64.5494C34.9658 64.5494 35.0684 64.6227 35.1562 64.7692C35.2734 64.9156 35.376 65.0914 35.4639 65.2965C35.5518 65.4723 35.625 65.6481 35.6836 65.8239C35.7715 65.9996 35.8594 66.1315 35.9473 66.2194C36.2402 66.483 36.5479 66.6735 36.8701 66.7906C37.2217 66.9078 37.4707 67.0397 37.6172 67.1862C37.6758 67.274 37.7637 67.5231 37.8809 67.9332C38.0273 68.3434 38.2617 68.7535 38.584 69.1637C38.7598 69.3981 39.0234 69.6617 39.375 69.9547C39.7266 70.2184 39.9023 70.3942 39.9023 70.4821ZM33.0029 96.7174C32.8857 95.8385 32.7686 95.15 32.6514 94.652C32.5342 94.1539 32.417 93.7731 32.2998 93.5094C32.1826 93.2164 32.0654 93.0114 31.9482 92.8942C31.8604 92.7477 31.7725 92.6012 31.6846 92.4547C31.5967 92.2789 31.5381 92.1178 31.5088 91.9713C31.4795 91.7955 31.4355 91.6344 31.377 91.4879C31.2598 91.2828 31.1279 91.1217 30.9814 91.0045C30.8643 90.858 30.7764 90.6969 30.7178 90.5211C30.6006 90.2281 30.5273 89.9352 30.498 89.6422C30.4688 89.3492 30.4395 89.0709 30.4102 88.8073C30.3809 88.5143 30.3369 88.236 30.2783 87.9723C30.249 87.7086 30.1758 87.4449 30.0586 87.1813C30 87.0934 29.8828 86.9615 29.707 86.7858C29.5605 86.5807 29.3848 86.3756 29.1797 86.1705C29.0039 85.9362 28.8135 85.7164 28.6084 85.5114C28.4326 85.277 28.2568 85.0719 28.0811 84.8961C27.9346 84.7496 27.7148 84.6324 27.4219 84.5446C27.1289 84.4567 26.9092 84.3541 26.7627 84.2369C26.7041 84.1783 26.6455 84.0758 26.5869 83.9293C26.5576 83.7828 26.5137 83.6803 26.4551 83.6217C26.0449 83.2408 25.6787 83.0504 25.3564 83.0504C24.8584 83.0504 24.1553 83.4166 23.2471 84.149C22.3389 84.8815 21.1084 85.8922 19.5557 87.1813C19.4385 87.3278 19.2773 87.401 19.0723 87.401C18.8672 87.401 18.7061 87.4449 18.5889 87.5328C18.3545 87.7086 18.1787 87.9869 18.0615 88.3678C17.9736 88.7194 17.9004 89.1149 17.8418 89.5543C17.7832 89.9938 17.7393 90.4479 17.71 90.9166C17.6807 91.3561 17.6514 91.7516 17.6221 92.1031C17.4756 93.1578 17.2998 94.11 17.0947 94.9596C16.8896 95.8092 16.6846 96.6442 16.4795 97.4645C16.3037 98.2848 16.1426 99.1344 15.9961 100.013C15.8496 100.892 15.7324 101.874 15.6445 102.958C16.2305 103.104 16.8604 103.207 17.5342 103.265C18.208 103.295 18.9111 103.309 19.6436 103.309C20.9619 103.309 22.251 103.251 23.5107 103.133C24.7998 102.987 25.8838 102.826 26.7627 102.65C27.0557 102.591 27.4512 102.533 27.9492 102.474C28.4473 102.386 28.9453 102.298 29.4434 102.211C29.9707 102.123 30.4395 102.035 30.8496 101.947C31.2598 101.859 31.5381 101.756 31.6846 101.639C31.7725 101.61 31.8896 101.434 32.0361 101.112C32.2119 100.79 32.3877 100.453 32.5635 100.101C32.7393 99.7203 32.8857 99.3688 33.0029 99.0465C33.1494 98.7242 33.2227 98.5338 33.2227 98.4752C33.2227 98.2994 33.1934 98.0797 33.1348 97.816C33.1055 97.5231 33.0615 97.1569 33.0029 96.7174ZM33.6621 72.4156C33.6621 72.2106 33.5742 72.0494 33.3984 71.9323C33.2227 71.8151 32.9883 71.5514 32.6953 71.1412C32.5195 70.9069 32.2852 70.5699 31.9922 70.1305C31.7285 69.691 31.4355 69.2662 31.1133 68.8561C30.791 68.4166 30.4688 68.0358 30.1465 67.7135C29.8535 67.3619 29.6045 67.1862 29.3994 67.1862C29.0186 66.9518 28.6816 66.7321 28.3887 66.527C28.1543 66.3805 27.9346 66.234 27.7295 66.0875C27.5244 65.941 27.4219 65.8824 27.4219 65.9117C26.9824 65.736 26.6309 65.6188 26.3672 65.5602C26.1035 65.5016 25.8105 65.3844 25.4883 65.2086C25.4004 65.15 25.2832 65.0475 25.1367 64.901C25.0195 64.7252 24.917 64.608 24.8291 64.5494C24.3896 64.4323 23.9648 64.359 23.5547 64.3297C23.1738 64.2711 22.9102 64.2418 22.7637 64.2418C22.6758 64.2418 22.5293 64.4615 22.3242 64.901C22.1191 65.3112 21.8994 65.8239 21.665 66.4391C21.46 67.0543 21.2695 67.7281 21.0938 68.4606C20.918 69.1637 20.8301 69.8229 20.8301 70.4381C20.8301 70.7311 20.8301 71.0094 20.8301 71.2731C20.8594 71.5074 20.874 71.7418 20.874 71.9762C20.874 72.2985 20.8154 72.5768 20.6982 72.8112C20.6104 73.0455 20.4932 73.2799 20.3467 73.5143C20.2295 73.7487 20.1123 73.9977 19.9951 74.2614C19.9072 74.525 19.8633 74.8326 19.8633 75.1842C19.8633 75.3307 19.8633 75.4772 19.8633 75.6237C19.8926 75.7701 19.9072 75.9166 19.9072 76.0631C19.8779 76.8248 19.7461 77.528 19.5117 78.1725C19.3066 78.817 19.2041 79.4615 19.2041 80.1061C19.2041 80.4283 19.2627 80.736 19.3799 81.0289C19.4971 81.3219 19.5557 81.6295 19.5557 81.9518C19.4385 81.9518 19.3359 82.025 19.248 82.1715C19.1895 82.2887 19.1309 82.4352 19.0723 82.611C19.043 82.7574 19.0137 82.8893 18.9844 83.0065C18.9844 83.1237 18.9844 83.1676 18.9844 83.1383L19.0723 83.402C19.1309 83.5778 19.248 83.6656 19.4238 83.6656C19.7461 83.6656 20.0684 83.5778 20.3906 83.402C20.7129 83.2262 21.0059 83.0358 21.2695 82.8307C21.5625 82.5963 21.8115 82.3619 22.0166 82.1276C22.251 81.8932 22.4268 81.7321 22.5439 81.6442C22.6904 81.4977 22.8516 81.4391 23.0273 81.4684C23.2031 81.4684 23.3643 81.4098 23.5107 81.2926C23.5693 81.234 23.6133 81.1315 23.6426 80.985C23.7012 80.8385 23.7598 80.736 23.8184 80.6774C23.9648 80.5309 24.126 80.4576 24.3018 80.4576C24.4775 80.4576 24.6533 80.4137 24.8291 80.3258C25.0635 80.15 25.2686 79.9742 25.4443 79.7985C25.6201 79.6227 25.8398 79.4615 26.1035 79.3151C26.3379 79.1979 26.6162 79.0953 26.9385 79.0074C27.2607 78.9196 27.5391 78.817 27.7734 78.6998C27.832 78.6412 27.876 78.5387 27.9053 78.3922C27.9639 78.2164 28.0225 78.0992 28.0811 78.0406C28.2275 77.9235 28.3887 77.8649 28.5645 77.8649C28.7695 77.8356 28.9307 77.777 29.0479 77.6891C29.1357 77.6305 29.1943 77.528 29.2236 77.3815C29.2529 77.2057 29.3115 77.0885 29.3994 77.0299C29.5459 76.9127 29.707 76.8688 29.8828 76.8981C30.0879 76.8981 30.2637 76.8395 30.4102 76.7223C30.5859 76.5465 30.8496 76.2682 31.2012 75.8873C31.582 75.4772 31.9482 75.0377 32.2998 74.569C32.6514 74.1002 32.959 73.6754 33.2227 73.2946C33.5156 72.8844 33.6621 72.5914 33.6621 72.4156ZM59.5898 96.7614C59.707 97.025 59.7656 97.3033 59.7656 97.5963C59.7656 97.8893 59.6924 98.153 59.5459 98.3873C59.4287 98.5924 59.2676 98.7975 59.0625 99.0026C58.8867 99.1783 58.6816 99.3541 58.4473 99.5299C58.2422 99.6764 58.0664 99.8375 57.9199 100.013C57.8613 100.13 57.8174 100.306 57.7881 100.541C57.7881 100.746 57.7295 100.907 57.6123 101.024C57.2607 101.405 56.8213 101.727 56.2939 101.991C55.7959 102.255 55.3564 102.591 54.9756 103.002C54.7412 103.265 54.5654 103.529 54.4482 103.793C54.3311 104.027 54.0674 104.305 53.6572 104.628C53.335 104.862 53.0273 105.184 52.7344 105.594C52.4414 106.005 52.1191 106.415 51.7676 106.825C51.416 107.206 51.0059 107.543 50.5371 107.836C50.0684 108.158 49.5117 108.319 48.8672 108.319C48.7207 108.319 48.5889 108.304 48.4717 108.275C48.3545 108.275 48.2227 108.26 48.0762 108.231C48.0762 108.231 47.9736 108.172 47.7686 108.055C47.5635 107.938 47.3291 107.704 47.0654 107.352C46.8311 107.001 46.6113 106.503 46.4062 105.858C46.2012 105.214 46.0986 104.364 46.0986 103.309C46.0986 103.046 46.1426 102.767 46.2305 102.474C46.3477 102.152 46.4648 101.844 46.582 101.551C46.7285 101.258 46.8457 100.965 46.9336 100.672C47.0508 100.35 47.1094 100.057 47.1094 99.7936C47.1094 99.5299 47.0508 99.2809 46.9336 99.0465C46.8164 98.8121 46.7578 98.5631 46.7578 98.2994C46.7578 98.0358 46.875 97.86 47.1094 97.7721C47.3438 97.6549 47.4609 97.4498 47.4609 97.1569C47.4609 97.0104 47.4463 96.8785 47.417 96.7614C47.417 96.6442 47.417 96.5123 47.417 96.3658C47.417 96.0143 47.4756 95.7799 47.5928 95.6627C47.71 95.5162 47.7686 95.3258 47.7686 95.0914C47.7686 94.8864 47.7246 94.7399 47.6367 94.652C47.5781 94.5348 47.5488 94.3883 47.5488 94.2125C47.5488 94.0074 47.6221 93.817 47.7686 93.6412C47.915 93.4362 48.0176 93.1578 48.0762 92.8063C48.2812 92.1324 48.4424 91.3414 48.5596 90.4332C48.6768 89.4957 48.8086 88.4996 48.9551 87.4449C49.1309 86.361 49.3213 85.2184 49.5264 84.0172C49.7314 82.7867 50.0244 81.5563 50.4053 80.3258C50.5225 79.9156 50.6396 79.3297 50.7568 78.568C50.9033 77.777 50.9912 76.9567 51.0205 76.1071C50.874 76.0192 50.7715 75.9752 50.7129 75.9752C50.4785 75.9752 50.3027 76.1656 50.1855 76.5465C50.0977 76.9274 49.9512 77.2057 49.7461 77.3815C49.5996 77.4987 49.4238 77.5573 49.2188 77.5573C49.043 77.5573 48.8818 77.6012 48.7354 77.6891C48.5596 77.8356 48.4131 78.0114 48.2959 78.2164C48.208 78.3922 48.1055 78.568 47.9883 78.7438C47.9004 78.9196 47.7686 79.0953 47.5928 79.2711C47.417 79.4469 47.1533 79.5787 46.8018 79.6666C46.7432 79.6959 46.7139 79.7692 46.7139 79.8864C46.7139 79.9742 46.6553 80.0182 46.5381 80.0182H46.4502C46.4502 79.9303 46.377 79.8571 46.2305 79.7985C46.1133 79.7106 45.9668 79.6227 45.791 79.5348C45.6152 79.4469 45.4541 79.3444 45.3076 79.2272C45.1904 79.11 45.1318 78.9635 45.1318 78.7877C45.1318 78.524 45.1904 78.319 45.3076 78.1725C45.4248 78.026 45.5859 77.9088 45.791 77.8209C45.9961 77.733 46.2012 77.6451 46.4062 77.5573C46.6406 77.4401 46.875 77.2789 47.1094 77.0739C47.4023 76.7809 47.7246 76.444 48.0762 76.0631C48.457 75.6823 48.8379 75.3014 49.2188 74.9205C49.5996 74.5104 49.9951 74.1295 50.4053 73.778C50.8447 73.3971 51.2842 73.0602 51.7236 72.7672C51.8115 72.7086 51.8262 72.65 51.7676 72.5914C51.7383 72.5328 51.8262 72.4889 52.0312 72.4596C52.1191 72.4596 52.2363 72.4156 52.3828 72.3278C52.5586 72.2106 52.7197 72.0934 52.8662 71.9762C53.042 71.8297 53.1885 71.7125 53.3057 71.6246C53.4229 71.5074 53.4961 71.4489 53.5254 71.4489C53.584 71.4489 53.6426 71.4635 53.7012 71.4928C53.7891 71.4928 53.8623 71.4928 53.9209 71.4928C54.1553 71.4928 54.4189 71.4342 54.7119 71.317C55.0342 71.1705 55.6055 71.0973 56.4258 71.0973C56.748 71.0973 57.0264 71.1998 57.2607 71.4049C57.5244 71.5807 57.6562 71.9615 57.6562 72.5475C57.6562 72.7233 57.583 73.0016 57.4365 73.3824C57.29 73.7633 57.1289 74.2174 56.9531 74.7448C56.7773 75.2721 56.6162 75.858 56.4697 76.5026C56.3232 77.1471 56.25 77.8209 56.25 78.524C56.25 78.817 56.2646 79.1246 56.2939 79.4469C56.3232 79.7399 56.3379 80.0328 56.3379 80.3258C56.3379 80.8531 56.2354 81.3073 56.0303 81.6881C55.8545 82.0397 55.7227 82.4645 55.6348 82.9625C55.5176 83.5778 55.459 84.2223 55.459 84.8961C55.459 85.5699 55.415 86.2438 55.3271 86.9176C55.0928 88.3239 54.8145 89.6862 54.4922 91.0045C54.1699 92.3229 53.8916 93.6852 53.6572 95.0914C53.5693 95.5602 53.4229 96.1608 53.2178 96.8932C53.042 97.6256 52.9541 98.402 52.9541 99.2223C52.9541 99.984 53.0859 100.687 53.3496 101.332C53.7891 101.302 54.1553 101.171 54.4482 100.936C54.7412 100.702 55.0049 100.438 55.2393 100.145C55.4736 99.8522 55.6934 99.5446 55.8984 99.2223C56.1328 98.9 56.3818 98.6217 56.6455 98.3873C56.8213 98.2408 57.0703 98.1383 57.3926 98.0797C57.7441 97.9918 58.0371 97.8746 58.2715 97.7281C58.5059 97.5817 58.667 97.3766 58.7549 97.1129C58.8428 96.8492 59.0332 96.7174 59.3262 96.7174C59.3848 96.7174 59.4287 96.7321 59.458 96.7614C59.4873 96.7614 59.5312 96.7614 59.5898 96.7614ZM61.2158 52.4645C61.3037 52.6403 61.3477 52.8307 61.3477 53.0358C61.3477 53.3873 61.2305 53.7682 60.9961 54.1783C60.7617 54.5885 60.498 54.984 60.2051 55.3649C59.9414 55.7457 59.6777 56.0973 59.4141 56.4196C59.1504 56.7125 58.9893 56.9176 58.9307 57.0348C58.7549 57.4156 58.6084 57.9283 58.4912 58.5729C58.4033 59.2174 58.2129 59.8033 57.9199 60.3307C57.8027 60.5651 57.7002 60.7408 57.6123 60.858C57.5244 60.9752 57.4219 61.2389 57.3047 61.649C57.1875 61.9127 57.041 62.2203 56.8652 62.5719C56.6895 62.9235 56.499 63.2604 56.2939 63.5826C56.0889 63.8756 55.8838 64.1393 55.6787 64.3737C55.4736 64.5787 55.2832 64.6813 55.1074 64.6813C54.3457 64.6813 53.8184 64.3151 53.5254 63.5826C53.2617 62.8209 53.1299 61.9274 53.1299 60.902C53.1299 60.4918 53.1445 60.067 53.1738 59.6276C53.2324 59.1881 53.291 58.7633 53.3496 58.3531C53.4082 57.9137 53.5547 57.5914 53.7891 57.3864C54.0234 57.1813 54.2139 56.859 54.3604 56.4196C54.5068 56.0387 54.6094 55.6725 54.668 55.3209C54.7266 54.9401 54.7852 54.5885 54.8438 54.2662C54.9316 53.944 55.0195 53.6656 55.1074 53.4313C55.2246 53.1676 55.4004 52.9479 55.6348 52.7721C55.8105 52.6549 56.0156 52.5524 56.25 52.4645C56.5137 52.3766 56.7773 52.318 57.041 52.2887C57.334 52.2301 57.6123 52.1862 57.876 52.1569C58.1689 52.1276 58.4033 52.1129 58.5791 52.1129C58.5791 52.1422 58.7109 52.0983 58.9746 51.9811C59.2383 51.8346 59.5312 51.7614 59.8535 51.7614C59.9121 51.7614 60.1025 51.8199 60.4248 51.9371C60.7764 52.025 61.04 52.2008 61.2158 52.4645ZM80.4639 96.1022C80.4053 96.483 80.332 96.8639 80.2441 97.2448C80.1855 97.6256 80.0391 98.0065 79.8047 98.3873C79.6582 98.651 79.4385 98.8854 79.1455 99.0905C78.8525 99.2662 78.6328 99.4713 78.4863 99.7057C78.3105 99.9401 78.1494 100.218 78.0029 100.541C77.8564 100.834 77.6953 101.097 77.5195 101.332C77.2266 101.713 76.8896 102.079 76.5088 102.43C76.1572 102.753 75.835 103.163 75.542 103.661C75.1904 104.247 74.7949 104.789 74.3555 105.287C73.9453 105.785 73.3594 106.429 72.5977 107.22C72.3633 107.484 72.1729 107.806 72.0264 108.187C71.8799 108.568 71.7334 108.802 71.5869 108.89C71.4404 109.007 71.2207 109.066 70.9277 109.066C70.6641 109.095 70.459 109.139 70.3125 109.198C70.3125 109.198 70.2393 109.242 70.0928 109.33C69.9756 109.418 69.8291 109.505 69.6533 109.593C69.5068 109.711 69.3311 109.798 69.126 109.857C68.9502 109.945 68.7891 109.989 68.6426 109.989C68.0273 109.989 67.5586 109.828 67.2363 109.505C66.9141 109.183 66.6797 108.714 66.5332 108.099C66.416 107.484 66.3428 106.722 66.3135 105.814C66.3135 104.906 66.3135 103.866 66.3135 102.694C66.3135 102.137 66.3281 101.669 66.3574 101.288C66.416 100.878 66.4746 100.511 66.5332 100.189C66.6211 99.8375 66.6943 99.5006 66.7529 99.1783C66.8408 98.8561 66.9287 98.4899 67.0166 98.0797C67.1924 97.1422 67.2949 96.1901 67.3242 95.2233C67.3828 94.2565 67.5 93.2311 67.6758 92.1471C67.7344 91.7369 67.8369 91.3121 67.9834 90.8727C68.1592 90.4332 68.2764 89.9791 68.335 89.5104C68.54 87.7819 68.6426 86.0094 68.6426 84.193C68.6719 82.3766 68.7891 80.5455 68.9941 78.6998C69.082 77.733 69.2139 76.7516 69.3896 75.7555C69.5947 74.7301 69.7852 73.734 69.9609 72.7672C70.1953 71.5074 70.4004 70.1598 70.5762 68.7242C70.7812 67.2594 70.9717 65.7799 71.1475 64.2858C71.3525 62.7916 71.543 61.2975 71.7188 59.8033C71.8945 58.2799 72.0703 56.8151 72.2461 55.4088C72.3047 54.9108 72.4219 54.4127 72.5977 53.9147C72.8027 53.3873 72.9053 52.8746 72.9053 52.3766C72.9053 51.7614 72.6855 51.234 72.2461 50.7946C71.7773 50.8824 71.4551 51.1168 71.2793 51.4977C71.1328 51.8492 70.9131 52.1715 70.6201 52.4645C70.21 52.8746 69.8291 53.2262 69.4775 53.5192C69.126 53.8121 68.7451 54.2223 68.335 54.7496C68.2178 54.8961 68.1006 55.0865 67.9834 55.3209C67.8662 55.5553 67.7197 55.7897 67.5439 56.024C67.3975 56.2291 67.207 56.4049 66.9727 56.5514C66.7383 56.6979 66.4453 56.7711 66.0938 56.7711C65.8008 56.7711 65.625 56.6979 65.5664 56.5514C65.5078 56.3756 65.4785 56.1998 65.4785 56.024C65.4785 55.7604 65.5518 55.5114 65.6982 55.277C65.874 55.0133 66.0645 54.7643 66.2695 54.5299C66.5039 54.2662 66.7529 54.0172 67.0166 53.7828C67.2803 53.5485 67.5 53.3141 67.6758 53.0797C68.1445 52.5231 68.584 51.9518 68.9941 51.3658C69.4336 50.7506 69.873 50.2379 70.3125 49.8278C70.6348 49.5055 71.0449 49.1979 71.543 48.9049C72.041 48.6119 72.5098 48.2604 72.9492 47.8502C73.3594 47.4694 73.6816 47.0006 73.916 46.444C74.1797 45.8873 74.502 45.4772 74.8828 45.2135C75 45.1256 75.1465 45.0817 75.3223 45.0817C75.5273 45.0524 75.7178 45.0231 75.8936 44.9938C76.0986 44.9352 76.2891 44.8619 76.4648 44.774C76.6406 44.6569 76.7725 44.4811 76.8604 44.2467C77.2998 44.2467 77.6807 44.3639 78.0029 44.5983C78.3252 44.8033 78.5889 45.0524 78.7939 45.3453C79.0283 45.609 79.2041 45.858 79.3213 46.0924C79.4385 46.3268 79.4971 46.4586 79.4971 46.4879C79.4971 46.8102 79.3945 47.1764 79.1895 47.5865C79.0137 47.9674 78.8965 48.3922 78.8379 48.861C78.7793 49.3297 78.7354 49.8278 78.7061 50.3551C78.6768 50.8531 78.6328 51.4244 78.5742 52.069C78.5449 52.7135 78.4717 53.4459 78.3545 54.2662C78.2373 55.0573 78.0762 55.9801 77.8711 57.0348C77.7539 57.5914 77.5635 58.1188 77.2998 58.6168C77.0654 59.1149 76.9189 59.569 76.8604 59.9791C76.6846 61.2389 76.5967 62.6012 76.5967 64.066C76.5967 65.5016 76.4648 66.8785 76.2012 68.1969C76.1133 68.6364 75.9814 69.0465 75.8057 69.4274C75.6299 69.7789 75.542 70.1598 75.542 70.5699C75.542 70.6871 75.542 70.8483 75.542 71.0533C75.5713 71.2291 75.5859 71.3903 75.5859 71.5367C75.5859 71.7418 75.5273 71.8883 75.4102 71.9762C75.3223 72.0348 75.2783 72.0934 75.2783 72.152C75.2783 72.2399 75.3223 72.3278 75.4102 72.4156C75.498 72.4742 75.542 72.6207 75.542 72.8551C75.542 73.5289 75.3955 74.2028 75.1025 74.8766C74.8096 75.5211 74.6191 76.1364 74.5312 76.7223C74.3262 78.1871 74.2236 79.6813 74.2236 81.2047C74.2529 82.7281 74.1504 84.193 73.916 85.5992C73.8574 85.9215 73.7402 86.2438 73.5645 86.566C73.3887 86.8883 73.2861 87.2106 73.2568 87.5328C73.1982 88.441 73.1396 89.4225 73.0811 90.4772C73.0518 91.5319 73.0078 92.528 72.9492 93.4655C72.8613 94.0807 72.7441 94.7692 72.5977 95.5309C72.4512 96.2926 72.3047 97.0836 72.1582 97.9039C72.041 98.6949 71.9238 99.486 71.8066 100.277C71.7188 101.068 71.6748 101.8 71.6748 102.474C71.6748 102.943 71.7041 103.295 71.7627 103.529C71.8213 103.763 71.8945 103.939 71.9824 104.056C72.0996 104.144 72.2021 104.203 72.29 104.232C72.4072 104.232 72.5098 104.232 72.5977 104.232C72.8027 104.232 72.9932 104.159 73.1689 104.012C73.3447 103.866 73.5059 103.69 73.6523 103.485C73.8281 103.28 73.9746 103.075 74.0918 102.87C74.2383 102.635 74.3848 102.445 74.5312 102.298C75.5273 101.42 76.2744 100.614 76.7725 99.8815C77.2705 99.1198 77.6807 98.4606 78.0029 97.9039C78.3252 97.3473 78.6328 96.9078 78.9258 96.5856C79.2188 96.2633 79.6729 96.1022 80.2881 96.1022H80.4639ZM106.567 76.5465C106.509 77.6598 106.348 78.6705 106.084 79.5787C105.85 80.4869 105.542 81.3219 105.161 82.0836C104.81 82.8453 104.414 83.5485 103.975 84.193C103.535 84.8375 103.081 85.4674 102.612 86.0826C102.319 86.4635 102.085 86.8004 101.909 87.0934C101.733 87.3571 101.558 87.5914 101.382 87.7965C101.206 88.0016 101.016 88.1774 100.811 88.3239C100.605 88.4703 100.327 88.5875 99.9756 88.6754C99.7412 88.734 99.4629 88.8073 99.1406 88.8951C98.8477 88.9537 98.584 89.1002 98.3496 89.3346C98.291 89.3932 98.2324 89.5104 98.1738 89.6862C98.1152 89.8326 98.0566 89.9352 97.998 89.9938C97.7637 90.1696 97.4854 90.2867 97.1631 90.3453C96.8701 90.3746 96.6064 90.4772 96.3721 90.653C96.1377 90.858 95.9766 91.0338 95.8887 91.1803C95.8008 91.3268 95.6396 91.4733 95.4053 91.6198C95.1709 91.7662 94.8926 91.8834 94.5703 91.9713C94.2773 92.0299 93.999 92.1324 93.7354 92.2789C93.5303 92.4254 93.3691 92.6012 93.252 92.8063C93.1641 92.9821 93.0029 93.1432 92.7686 93.2897C92.2998 93.6119 91.9043 93.861 91.582 94.0367C91.2598 94.1832 90.9961 94.403 90.791 94.6959C90.6152 94.9889 90.4834 95.4137 90.3955 95.9703C90.3076 96.527 90.2637 97.3766 90.2637 98.5192C90.2637 99.193 90.2783 99.8375 90.3076 100.453C90.3662 101.068 90.4248 101.522 90.4834 101.815C90.5127 101.903 90.6006 102.108 90.7471 102.43C90.9229 102.723 91.1279 103.046 91.3623 103.397C91.626 103.749 91.9189 104.071 92.2412 104.364C92.5635 104.628 92.9004 104.759 93.252 104.759C93.7793 104.759 94.248 104.569 94.6582 104.188C95.0684 103.778 95.5225 103.426 96.0205 103.133C96.4014 102.899 96.8994 102.591 97.5146 102.211C98.1299 101.8 98.6279 101.346 99.0088 100.848C99.126 100.672 99.2725 100.438 99.4482 100.145C99.624 99.8229 99.8145 99.5153 100.02 99.2223C100.254 98.9 100.503 98.6364 100.767 98.4313C101.06 98.1969 101.382 98.0797 101.733 98.0797C101.88 98.0797 102.07 98.1237 102.305 98.2115C102.275 98.7096 102.114 99.1637 101.821 99.5739C101.558 99.984 101.25 100.365 100.898 100.716C100.576 101.039 100.283 101.332 100.02 101.595C99.7559 101.859 99.624 102.079 99.624 102.255C99.624 102.313 99.624 102.401 99.624 102.518C99.6533 102.606 99.668 102.679 99.668 102.738C99.668 102.884 99.4922 103.002 99.1406 103.089C98.8184 103.148 98.5547 103.265 98.3496 103.441C98.2031 103.588 98.0859 103.763 97.998 103.968C97.9395 104.144 97.8369 104.291 97.6904 104.408C97.3682 104.672 97.0312 104.906 96.6797 105.111C96.3281 105.316 96.0059 105.536 95.7129 105.77C95.3906 106.063 95.0537 106.4 94.7021 106.781C94.3799 107.162 94.0576 107.513 93.7354 107.836C93.4131 108.187 93.0908 108.48 92.7686 108.714C92.4756 108.949 92.1973 109.066 91.9336 109.066C91.7871 109.066 91.626 109.037 91.4502 108.978C91.3037 108.949 91.1572 108.934 91.0107 108.934C90.8643 108.934 90.7471 108.993 90.6592 109.11C90.5713 109.227 90.4541 109.286 90.3076 109.286C90.0439 109.286 89.7363 109.154 89.3848 108.89C89.0332 108.656 88.7402 108.48 88.5059 108.363C88.0957 108.216 87.6123 108.114 87.0557 108.055C86.499 108.026 86.1035 107.923 85.8691 107.748C85.6641 107.572 85.5029 107.25 85.3857 106.781C85.2979 106.312 85.1367 105.858 84.9023 105.419C84.668 105.008 84.4043 104.672 84.1113 104.408C83.8184 104.144 83.6426 103.939 83.584 103.793C83.5254 103.617 83.4814 103.382 83.4521 103.089C83.4521 102.767 83.4521 102.445 83.4521 102.123C83.4521 101.771 83.4375 101.434 83.4082 101.112C83.3789 100.76 83.3203 100.453 83.2324 100.189C83.2031 100.101 83.1445 100.028 83.0566 99.9694C82.9688 99.8815 82.9248 99.7203 82.9248 99.486C82.9248 99.5153 82.9688 99.4567 83.0566 99.3102C83.1738 99.1344 83.2324 98.9879 83.2324 98.8707C83.3789 96.5563 83.584 94.359 83.8477 92.2789C84.1406 90.1696 84.5068 88.2506 84.9463 86.5221C85.3857 84.7643 85.9131 83.2408 86.5283 81.9518C87.1729 80.6334 87.9346 79.5934 88.8135 78.8317C88.96 78.7145 89.1211 78.6705 89.2969 78.6998C89.502 78.6998 89.6777 78.6412 89.8242 78.524C89.8828 78.4655 89.9268 78.3629 89.9561 78.2164C90.0146 78.0406 90.0732 77.9235 90.1318 77.8649C90.2783 77.7477 90.4395 77.6891 90.6152 77.6891C90.8203 77.6891 90.9814 77.6305 91.0986 77.5133C91.1865 77.4547 91.3037 77.3375 91.4502 77.1617C91.5967 76.986 91.7432 76.7955 91.8896 76.5905C92.0361 76.3854 92.1826 76.1949 92.3291 76.0192C92.4756 75.8141 92.6221 75.6676 92.7686 75.5797C93.1201 75.3453 93.5449 75.1842 94.043 75.0963C94.541 75.0084 94.9951 74.8326 95.4053 74.569C95.5225 74.5104 95.6543 74.3932 95.8008 74.2174C95.9473 74.0416 96.0938 73.8658 96.2402 73.6901C96.416 73.485 96.5771 73.3092 96.7236 73.1627C96.8701 73.0162 97.0166 72.943 97.1631 72.943C97.2217 72.943 97.2949 72.9576 97.3828 72.9869C97.4707 72.9869 97.5439 72.9869 97.6025 72.9869C97.6611 72.9869 97.8809 72.8112 98.2617 72.4596C98.6719 72.108 99.0381 71.8297 99.3604 71.6246C99.4482 71.566 99.4922 71.4635 99.4922 71.317C99.5215 71.1412 99.5801 71.024 99.668 70.9655C99.8145 70.8483 100.049 70.7604 100.371 70.7018C100.693 70.6139 101.001 70.4821 101.294 70.3063C101.528 70.1598 101.704 70.0133 101.821 69.8668C101.938 69.7203 102.202 69.6471 102.612 69.6471C103.667 69.735 104.473 69.9254 105.029 70.2184C105.586 70.5114 105.967 70.9362 106.172 71.4928C106.406 72.0201 106.523 72.7086 106.523 73.5582C106.553 74.3785 106.567 75.3746 106.567 76.5465ZM100.327 76.5465C100.298 76.4879 100.181 76.3854 99.9756 76.2389C99.7998 76.0631 99.6973 75.9459 99.668 75.8873C99.5801 75.7408 99.5361 75.5944 99.5361 75.4479C99.5361 75.2721 99.5215 75.111 99.4922 74.9645C99.4629 74.818 99.4043 74.7008 99.3164 74.6129C99.2578 74.525 99.126 74.4811 98.9209 74.4811C98.7451 74.4811 98.4814 74.5836 98.1299 74.7887C97.8076 74.9645 97.4561 75.1842 97.0752 75.4479C96.7236 75.7115 96.3867 75.9752 96.0645 76.2389C95.7422 76.5026 95.5225 76.7076 95.4053 76.8541C95.2588 77.0299 95.0537 77.3522 94.79 77.8209C94.5557 78.2604 94.3066 78.7145 94.043 79.1832C93.8086 79.652 93.5889 80.0621 93.3838 80.4137C93.1787 80.7653 93.0615 80.941 93.0322 80.941C93.0322 80.9996 93.0322 81.0729 93.0322 81.1608C93.0615 81.2487 93.0762 81.3219 93.0762 81.3805C93.0762 81.5563 92.959 81.7174 92.7246 81.8639C92.4902 81.9811 92.373 82.2301 92.373 82.611C92.373 82.7574 92.3877 82.9332 92.417 83.1383C92.4463 83.3141 92.4609 83.4752 92.4609 83.6217C92.4609 83.8561 92.3584 84.0905 92.1533 84.3248C91.9775 84.5592 91.8604 84.8082 91.8018 85.0719C91.5381 86.0094 91.2744 87.0201 91.0107 88.1041C90.7471 89.1588 90.6152 90.1989 90.6152 91.2242C90.6152 91.5465 90.6445 91.8248 90.7031 92.0592C90.791 92.2643 91.0254 92.3668 91.4062 92.3668C91.6699 92.3668 91.8604 92.3229 91.9775 92.235C92.124 92.1178 92.2412 91.986 92.3291 91.8395C92.417 91.6637 92.4902 91.5026 92.5488 91.3561C92.6074 91.2096 92.6807 91.0924 92.7686 91.0045C93.1494 90.653 93.5889 90.2867 94.0869 89.9059C94.585 89.525 95.083 89.1295 95.5811 88.7194C96.1084 88.2799 96.6064 87.8405 97.0752 87.401C97.5732 86.9615 97.998 86.5221 98.3496 86.0826C98.4375 85.9362 98.5254 85.7018 98.6133 85.3795C98.7012 85.028 98.833 84.7057 99.0088 84.4127C99.4482 83.651 99.7852 82.6696 100.02 81.4684C100.283 80.2672 100.415 78.9489 100.415 77.5133C100.415 77.3668 100.4 77.2057 100.371 77.0299C100.371 76.8541 100.356 76.693 100.327 76.5465ZM135.615 67.7574C135.586 67.8453 135.571 67.9625 135.571 68.109C135.571 68.2555 135.571 68.3873 135.571 68.5045C135.601 68.5924 135.615 68.6949 135.615 68.8121C135.615 69.1344 135.557 69.3834 135.439 69.5592C135.322 69.7057 135.176 69.8229 135 69.9108C134.824 69.9987 134.634 70.0719 134.429 70.1305C134.253 70.1891 134.106 70.277 133.989 70.3942C133.901 70.4821 133.77 70.6285 133.594 70.8336C133.418 71.0094 133.228 71.1998 133.022 71.4049C132.847 71.61 132.656 71.8004 132.451 71.9762C132.275 72.152 132.129 72.2838 132.012 72.3717C131.689 72.5475 131.265 72.7086 130.737 72.8551C130.239 72.9723 129.785 73.1334 129.375 73.3385C128.965 73.5436 128.628 73.734 128.364 73.9098C128.101 74.0563 127.852 74.1881 127.617 74.3053C127.383 74.4225 127.104 74.5104 126.782 74.569C126.46 74.6276 126.021 74.6569 125.464 74.6569C125.464 74.5983 125.435 74.525 125.376 74.4371C125.317 74.3492 125.259 74.3053 125.2 74.3053C125.171 74.3053 125.142 74.3199 125.112 74.3492C124.849 74.6422 124.541 74.8033 124.189 74.8326C123.867 74.8619 123.545 74.9498 123.223 75.0963C122.93 75.2135 122.666 75.5065 122.432 75.9752C122.227 76.444 122.124 77.2643 122.124 78.4362C122.124 78.7291 122.139 79.0221 122.168 79.3151C122.197 79.608 122.212 79.901 122.212 80.194C122.212 80.985 122.139 81.8639 121.992 82.8307C121.846 83.7682 121.685 84.7643 121.509 85.819C121.333 86.8444 121.143 87.9137 120.938 89.027C120.762 90.111 120.63 91.2242 120.542 92.3668C120.396 94.0074 120.234 95.692 120.059 97.4205C119.912 99.149 119.839 100.848 119.839 102.518C120.601 102.284 121.216 101.874 121.685 101.288C122.183 100.672 122.681 100.101 123.179 99.5739C123.442 99.2809 123.735 98.9733 124.058 98.651C124.409 98.2994 124.761 97.9479 125.112 97.5963C125.142 97.567 125.171 97.4938 125.2 97.3766C125.259 97.2301 125.317 97.0836 125.376 96.9371C125.464 96.7614 125.552 96.6149 125.64 96.4977C125.728 96.3512 125.815 96.278 125.903 96.278C125.962 96.278 126.035 96.2926 126.123 96.3219C126.211 96.3512 126.284 96.3658 126.343 96.3658C126.431 96.3658 126.519 96.2926 126.606 96.1461C126.694 95.9996 126.797 95.8385 126.914 95.6627C127.061 95.4869 127.222 95.3258 127.397 95.1793C127.573 95.0328 127.793 94.9596 128.057 94.9596C128.145 94.9596 128.218 94.9742 128.276 95.0035C128.364 95.0035 128.408 95.0768 128.408 95.2233C128.408 95.6627 128.232 96.0436 127.881 96.3658C127.559 96.6881 127.295 96.9957 127.09 97.2887C126.211 98.5485 125.229 99.8082 124.146 101.068C123.091 102.328 122.109 103.793 121.201 105.463C121.055 105.668 120.938 105.814 120.85 105.902C120.762 105.99 120.674 106.078 120.586 106.166C120.498 106.224 120.366 106.297 120.19 106.385C120.044 106.473 119.824 106.62 119.531 106.825C119.238 107.001 118.989 107.22 118.784 107.484C118.579 107.748 118.359 107.997 118.125 108.231C117.92 108.495 117.671 108.7 117.378 108.846C117.085 109.022 116.719 109.11 116.279 109.11C116.045 109.081 115.781 108.92 115.488 108.627C115.195 108.334 114.917 108.011 114.653 107.66C114.419 107.279 114.214 106.898 114.038 106.517C113.862 106.136 113.774 105.858 113.774 105.682C113.774 105.477 113.789 105.155 113.818 104.715C113.877 104.247 113.95 103.719 114.038 103.133C114.126 102.547 114.214 101.932 114.302 101.288C114.419 100.614 114.521 99.9401 114.609 99.2662C114.668 99.2662 114.741 99.2516 114.829 99.2223C114.917 99.1637 114.961 99.1051 114.961 99.0465C114.902 98.9586 114.858 98.8561 114.829 98.7389C114.741 98.5631 114.697 98.2848 114.697 97.9039C114.697 97.4352 114.741 96.8785 114.829 96.234C114.917 95.5602 115.005 94.901 115.093 94.2565C115.21 93.5826 115.312 92.9674 115.4 92.4108C115.518 91.8248 115.591 91.3707 115.62 91.0485C115.649 90.5797 115.664 90.1256 115.664 89.6862C115.664 89.2467 115.679 88.8073 115.708 88.3678C115.737 87.9283 115.796 87.4742 115.884 87.0055C115.972 86.5367 116.104 86.024 116.279 85.4674C116.367 84.8815 116.411 84.2809 116.411 83.6656C116.44 83.0504 116.499 82.4498 116.587 81.8639C116.646 81.5709 116.748 81.234 116.895 80.8531C117.041 80.4723 117.158 80.0475 117.246 79.5787C117.305 79.2565 117.349 78.8903 117.378 78.4801C117.407 78.0406 117.437 77.6305 117.466 77.2496C117.495 76.8688 117.51 76.5465 117.51 76.2828C117.539 76.0192 117.554 75.902 117.554 75.9313C117.437 75.7555 117.085 75.6237 116.499 75.5358C115.942 75.4479 115.342 75.4039 114.697 75.4039C113.76 75.4039 112.983 75.5211 112.368 75.7555C111.753 75.9606 111.299 76.3561 111.006 76.942C110.918 77.1178 110.845 77.3082 110.786 77.5133C110.757 77.7184 110.698 77.9235 110.61 78.1285C110.552 78.3043 110.435 78.4508 110.259 78.568C110.112 78.6852 109.863 78.7438 109.512 78.7438C109.336 78.7438 109.146 78.7145 108.94 78.6559C108.765 78.5973 108.677 78.4362 108.677 78.1725C108.677 77.7623 108.779 77.4108 108.984 77.1178C109.189 76.8248 109.438 76.5465 109.731 76.2828C110.054 76.0192 110.391 75.7701 110.742 75.5358C111.094 75.2721 111.401 74.9791 111.665 74.6569C111.812 74.5104 111.87 74.3492 111.841 74.1735C111.812 73.9977 111.855 73.8219 111.973 73.6461C112.031 73.5582 112.134 73.4996 112.28 73.4703C112.456 73.441 112.573 73.3971 112.632 73.3385C112.632 73.3385 112.734 73.1481 112.939 72.7672C113.145 72.3571 113.452 71.903 113.862 71.4049C114.272 70.9069 114.756 70.4528 115.312 70.0426C115.898 69.6324 116.543 69.4274 117.246 69.4274C117.305 69.4274 117.451 69.5006 117.686 69.6471C117.92 69.7643 118.125 69.8229 118.301 69.8229C118.623 69.8229 118.843 69.5885 118.96 69.1198C119.106 68.6217 119.194 68.0504 119.224 67.4059C119.282 66.7614 119.312 66.1315 119.312 65.5162C119.341 64.8717 119.414 64.4176 119.531 64.1539C119.707 63.7145 120.015 63.2311 120.454 62.7037C120.923 62.1764 121.377 61.6637 121.816 61.1656C122.227 60.6969 122.578 60.2721 122.871 59.8912C123.164 59.5104 123.457 59.1881 123.75 58.9244C124.043 58.6315 124.365 58.3971 124.717 58.2213C125.098 58.0455 125.566 57.943 126.123 57.9137C125.947 58.236 125.801 58.6461 125.684 59.1442C125.566 59.6422 125.449 60.1696 125.332 60.7262C125.244 61.2535 125.156 61.7955 125.068 62.3522C124.98 62.8795 124.878 63.3629 124.761 63.8024V63.9342C124.761 64.0514 124.761 64.1539 124.761 64.2418C124.79 64.3297 124.805 64.4323 124.805 64.5494C124.805 64.6666 124.761 64.7985 124.673 64.9449C124.585 65.0914 124.482 65.3112 124.365 65.6041C124.277 65.8971 124.189 66.2926 124.102 66.7906C124.014 67.2887 123.97 67.9625 123.97 68.8121C123.97 69.2223 123.999 69.5446 124.058 69.7789C124.116 69.984 124.219 70.1451 124.365 70.2623C124.541 70.3502 124.775 70.4088 125.068 70.4381C125.391 70.4381 125.801 70.4381 126.299 70.4381C128.145 70.4381 129.653 70.277 130.825 69.9547C131.997 69.6324 132.832 69.2223 133.33 68.7242C133.447 68.6071 133.667 68.3873 133.989 68.0651C134.341 67.7135 134.692 67.5377 135.044 67.5377C135.278 67.5377 135.469 67.611 135.615 67.7574Z" fill="#F1FAEE"/>
<path d="M213.827 61.41C213.827 65.13 212.807 68.46 210.767 71.4C208.727 74.28 205.937 76.68 202.397 78.6C204.677 80.16 206.477 82.08 207.797 84.36C209.177 86.58 209.867 89.04 209.867 91.74C209.867 94.98 208.877 98.19 206.897 101.37C204.977 104.49 202.397 107.28 199.157 109.74C195.917 112.14 192.227 114.09 188.087 115.59C183.947 117.09 179.717 117.84 175.397 117.84C170.717 117.84 166.607 116.94 163.067 115.14C159.587 113.4 156.857 110.91 154.877 107.67C155.477 105.87 156.257 103.65 157.217 101.01C158.237 98.31 159.347 95.49 160.547 92.55C161.747 89.55 162.947 86.58 164.147 83.64C165.407 80.7 166.577 78.06 167.657 75.72C169.937 70.62 171.977 66.39 173.777 63.03C175.577 59.67 177.227 57 178.727 55.02C175.427 56.04 172.427 57.21 169.727 58.53C167.027 59.79 165.047 61.02 163.787 62.22C163.247 61.86 162.677 61.32 162.077 60.6C161.537 59.88 160.997 59.1 160.457 58.26C159.977 57.36 159.557 56.46 159.197 55.56C158.897 54.66 158.717 53.85 158.657 53.13C160.217 52.05 162.227 51.03 164.687 50.07C167.207 49.05 169.937 48.18 172.877 47.46C175.817 46.74 178.817 46.17 181.877 45.75C184.997 45.33 187.967 45.12 190.787 45.12C197.987 45.12 203.627 46.56 207.707 49.44C211.787 52.32 213.827 56.31 213.827 61.41ZM179.537 82.92C178.397 82.38 177.347 81.57 176.387 80.49C175.007 83.55 173.687 86.55 172.427 89.49C171.227 92.43 170.147 95.16 169.187 97.68C168.227 100.2 167.447 102.39 166.847 104.25C166.247 106.11 165.917 107.46 165.857 108.3C166.697 108.78 167.687 109.14 168.827 109.38C170.027 109.62 171.497 109.74 173.237 109.74C177.317 109.74 181.217 109.17 184.937 108.03C188.657 106.89 191.927 105.36 194.747 103.44C197.567 101.46 199.817 99.21 201.497 96.69C203.177 94.17 204.017 91.53 204.017 88.77C204.017 84.81 202.307 81.96 198.887 80.22C194.207 82.14 188.927 83.1 183.047 83.1C182.207 83.1 181.547 83.1 181.067 83.1C180.647 83.1 180.137 83.04 179.537 82.92ZM196.997 51.69C195.737 51.69 194.387 51.78 192.947 51.96C191.567 52.08 190.097 52.29 188.537 52.59C188.777 52.83 188.957 53.1 189.077 53.4C189.257 53.64 189.407 53.91 189.527 54.21C188.987 54.93 188.327 55.98 187.547 57.36C186.767 58.74 185.897 60.36 184.937 62.22C183.977 64.02 182.957 66.03 181.877 68.25C180.857 70.47 179.807 72.75 178.727 75.09C179.747 74.85 180.977 74.67 182.417 74.55C183.917 74.37 185.387 74.28 186.827 74.28C187.607 74.28 188.357 74.31 189.077 74.37C189.857 74.43 190.607 74.52 191.327 74.64C194.207 74.16 196.787 73.47 199.067 72.57C201.407 71.61 203.417 70.53 205.097 69.33C206.777 68.07 208.067 66.69 208.967 65.19C209.867 63.69 210.317 62.1 210.317 60.42C210.317 57.54 209.177 55.38 206.897 53.94C204.617 52.44 201.317 51.69 196.997 51.69ZM226.325 114.15C222.905 113.79 220.175 112.29 218.135 109.65C216.095 107.01 215.075 103.65 215.075 99.57C215.075 97.17 215.435 94.68 216.155 92.1C216.875 89.52 217.895 87.03 219.215 84.63C220.535 82.17 222.095 79.86 223.895 77.7C225.695 75.54 227.645 73.68 229.745 72.12C233.045 69.66 236.135 68.43 239.015 68.43C240.935 69.45 242.825 71.58 244.685 74.82C244.985 74.82 245.255 74.82 245.495 74.82C245.735 74.76 246.005 74.73 246.305 74.73C249.485 74.73 251.075 77.55 251.075 83.19C251.075 86.97 250.445 90.57 249.185 93.99C247.985 97.35 246.275 100.41 244.055 103.17C241.895 105.93 239.285 108.27 236.225 110.19C233.225 112.05 229.925 113.37 226.325 114.15ZM230.915 85.8C229.895 87.18 228.935 88.68 228.035 90.3C227.135 91.92 226.355 93.57 225.695 95.25C225.035 96.87 224.525 98.46 224.165 100.02C223.805 101.52 223.625 102.87 223.625 104.07C223.625 105.51 223.865 106.89 224.345 108.21C224.825 109.53 225.365 110.28 225.965 110.46C228.665 109.86 231.125 108.75 233.345 107.13C235.625 105.45 237.575 103.38 239.195 100.92C240.875 98.46 242.165 95.67 243.065 92.55C244.025 89.43 244.505 86.1 244.505 82.56C244.505 81 244.415 79.77 244.235 78.87C244.055 77.97 243.755 77.19 243.335 76.53C240.695 77.31 238.325 78.57 236.225 80.31C234.185 82.05 232.415 83.88 230.915 85.8ZM253.272 109.2C253.572 107.46 254.082 105.18 254.802 102.36C255.582 99.48 256.482 96.45 257.502 93.27C258.522 90.03 259.602 86.79 260.742 83.55C261.882 80.31 262.992 77.4 264.072 74.82C264.852 72.96 265.542 71.52 266.142 70.5C266.742 69.42 267.402 68.52 268.122 67.8C268.962 67.92 269.832 68.13 270.732 68.43C271.632 68.73 272.502 69.09 273.342 69.51C274.182 69.93 274.932 70.38 275.592 70.86C276.252 71.28 276.762 71.7 277.122 72.12C275.502 74.04 274.062 76.23 272.802 78.69C271.602 81.15 270.372 84.3 269.112 88.14C272.352 85.26 275.202 82.5 277.662 79.86C280.182 77.22 282.522 74.28 284.682 71.04C285.042 70.74 285.672 70.59 286.572 70.59C287.412 70.59 288.222 70.74 289.002 71.04C289.782 71.28 290.322 71.64 290.622 72.12C289.542 75 289.002 77.85 289.002 80.67C289.002 83.31 289.392 85.29 290.172 86.61C290.112 86.97 289.692 87.66 288.912 88.68C288.192 89.7 287.382 90.66 286.482 91.56C284.862 90.72 283.422 89.58 282.162 88.14C280.902 86.64 279.972 85.02 279.372 83.28C276.552 85.26 274.152 87.21 272.172 89.13C270.192 90.99 268.482 93.09 267.042 95.43C265.662 97.71 264.462 100.35 263.442 103.35C262.482 106.35 261.552 109.92 260.652 114.06C260.112 114 259.452 113.79 258.672 113.43C257.952 113.13 257.202 112.74 256.422 112.26C255.702 111.78 255.042 111.27 254.442 110.73C253.842 110.19 253.452 109.68 253.272 109.2ZM291.175 114.42C290.215 114.3 289.195 113.88 288.115 113.16C287.095 112.5 286.435 111.75 286.135 110.91C286.135 110.19 286.225 109.26 286.405 108.12C286.645 106.98 286.915 105.84 287.215 104.7C287.515 103.5 287.815 102.39 288.115 101.37C288.415 100.29 288.625 99.48 288.745 98.94C289.465 98.94 290.365 99.12 291.445 99.48C292.585 99.84 293.725 100.35 294.865 101.01C296.065 101.61 297.175 102.33 298.195 103.17C299.275 103.95 300.085 104.76 300.625 105.6C300.085 106.8 299.395 107.94 298.555 109.02C297.715 110.1 296.815 111.03 295.855 111.81C294.955 112.65 294.085 113.28 293.245 113.7C292.405 114.18 291.715 114.42 291.175 114.42ZM362.384 83.37C361.424 83.43 360.254 84.06 358.874 85.26C357.494 86.4 355.994 87.9 354.374 89.76C352.814 91.56 351.164 93.57 349.424 95.79C347.744 98.01 346.094 100.23 344.474 102.45C342.914 104.61 341.444 106.65 340.064 108.57C338.684 110.49 337.514 112.02 336.554 113.16C335.234 112.62 334.094 111.84 333.134 110.82C332.174 109.74 331.484 108.42 331.064 106.86C331.364 105 331.784 103.08 332.324 101.1C332.864 99.06 333.554 96.96 334.394 94.8C335.294 92.64 336.374 90.39 337.634 88.05C338.954 85.65 340.544 83.13 342.404 80.49C341.504 80.55 340.274 81.21 338.714 82.47C337.154 83.67 335.474 85.26 333.674 87.24C331.874 89.16 330.014 91.35 328.094 93.81C326.174 96.21 324.374 98.58 322.694 100.92C320.474 104.04 318.614 106.77 317.114 109.11C315.674 111.45 314.624 112.83 313.964 113.25C312.404 112.11 311.324 110.88 310.724 109.56C310.124 108.24 309.674 106.77 309.374 105.15C309.434 103.71 309.644 101.91 310.004 99.75C310.424 97.59 310.994 95.37 311.714 93.09C313.094 88.71 314.864 84.36 317.024 80.04C319.244 75.72 321.374 71.76 323.414 68.16C325.094 68.52 326.594 69.09 327.914 69.87C329.294 70.65 330.734 71.79 332.234 73.29C331.634 75.15 330.704 77.13 329.444 79.23C328.184 81.27 326.864 83.43 325.484 85.71C324.104 87.99 322.844 90.33 321.704 92.73C320.564 95.13 319.814 97.56 319.454 100.02C321.134 97.62 323.114 94.86 325.394 91.74C327.734 88.62 330.104 85.68 332.504 82.92C334.964 80.16 337.394 77.82 339.794 75.9C342.194 73.98 344.354 73.02 346.274 73.02C346.994 73.02 347.774 73.14 348.614 73.38C349.454 73.62 350.234 73.92 350.954 74.28C351.674 74.64 352.274 75 352.754 75.36C353.234 75.66 353.504 75.9 353.564 76.08C353.264 77.28 352.544 78.93 351.404 81.03C350.324 83.07 349.154 85.23 347.894 87.51C346.634 89.79 345.464 92.01 344.384 94.17C343.304 96.27 342.674 97.95 342.494 99.21C345.434 95.19 348.194 91.56 350.774 88.32C353.354 85.02 355.784 82.2 358.064 79.86C360.344 77.52 362.444 75.72 364.364 74.46C366.344 73.2 368.204 72.57 369.944 72.57C371.144 72.57 372.254 72.9 373.274 73.56C374.354 74.16 375.104 75.06 375.524 76.26C374.984 78.06 374.084 80.22 372.824 82.74C371.624 85.26 370.394 87.93 369.134 90.75C367.874 93.51 366.734 96.24 365.714 98.94C364.754 101.64 364.274 104.07 364.274 106.23C364.274 107.49 364.454 108.33 364.814 108.75C365.174 109.11 365.684 109.29 366.344 109.29C367.064 109.29 367.724 109.17 368.324 108.93C368.984 108.63 369.464 108.48 369.764 108.48C370.124 108.72 370.334 109.02 370.394 109.38C370.454 109.74 370.484 110.07 370.484 110.37C369.284 111.33 368.054 112.11 366.794 112.71C365.534 113.37 364.124 113.7 362.564 113.7C361.124 113.7 359.924 113.46 358.964 112.98C358.064 112.5 357.314 111.84 356.714 111C356.114 110.16 355.694 109.2 355.454 108.12C355.214 107.04 355.094 105.87 355.094 104.61C355.094 102.57 355.364 100.56 355.904 98.58C356.444 96.54 357.074 94.62 357.794 92.82C358.574 90.96 359.384 89.25 360.224 87.69C361.064 86.07 361.784 84.63 362.384 83.37ZM411.402 73.74C411.162 77.46 410.502 80.67 409.422 83.37C408.342 86.01 406.782 88.35 404.742 90.39C402.762 92.37 400.332 94.17 397.452 95.79C394.572 97.41 391.212 98.97 387.372 100.47C387.372 100.83 387.342 101.22 387.282 101.64C387.282 102 387.282 102.39 387.282 102.81C387.282 103.59 387.342 104.4 387.462 105.24C387.582 106.08 387.792 106.86 388.092 107.58C388.392 108.3 388.812 108.9 389.352 109.38C389.892 109.8 390.582 110.01 391.422 110.01C393.042 110.01 394.632 109.65 396.192 108.93C397.752 108.21 399.222 107.34 400.602 106.32C402.042 105.24 403.362 104.1 404.562 102.9C405.822 101.64 406.932 100.5 407.892 99.48C408.492 100.02 409.002 100.53 409.422 101.01C406.722 104.61 403.752 107.61 400.512 110.01C397.332 112.35 394.302 113.85 391.422 114.51C387.282 114.03 384.042 112.53 381.702 110.01C379.422 107.43 378.282 104.34 378.282 100.74C378.282 98.28 378.612 95.79 379.272 93.27C379.992 90.69 380.952 88.23 382.152 85.89C383.412 83.49 384.852 81.24 386.472 79.14C388.152 77.04 389.922 75.21 391.782 73.65C393.702 72.09 395.652 70.86 397.632 69.96C399.672 69.06 401.682 68.61 403.662 68.61C406.422 68.97 409.002 70.68 411.402 73.74ZM405.192 76.71C403.572 76.95 401.892 77.61 400.152 78.69C398.412 79.77 396.762 81.21 395.202 83.01C393.702 84.81 392.322 86.91 391.062 89.31C389.802 91.71 388.812 94.29 388.092 97.05C392.892 94.65 396.882 91.71 400.062 88.23C403.242 84.69 404.952 80.85 405.192 76.71Z" fill="#E63946"/>
<path d="M108.105 37.2831C108.1 37.2705 108.097 37.2566 108.097 37.2427C108.097 37.2288 108.1 37.215 108.107 37.2025C108.113 37.19 108.122 37.179 108.132 37.1703C108.143 37.1616 108.156 37.1555 108.17 37.1523C108.22 37.14 108.265 37.1132 108.3 37.0751L108.422 36.9442C108.454 36.9078 108.479 36.8653 108.495 36.8193C108.511 36.7733 108.518 36.7246 108.515 36.676C108.512 36.6274 108.499 36.5798 108.478 36.536C108.457 36.4922 108.427 36.4531 108.391 36.4208C108.354 36.3885 108.312 36.3636 108.266 36.3477C108.22 36.3318 108.171 36.3252 108.123 36.3281C108.074 36.331 108.026 36.3434 107.983 36.3647C107.939 36.386 107.9 36.4157 107.867 36.4522L107.802 36.5294C107.791 36.5438 107.781 36.5592 107.773 36.5752L106.888 34.6987C106.881 34.6835 106.878 34.6665 106.879 34.6496C106.881 34.6327 106.887 34.6166 106.898 34.6031L107.072 34.3663C107.072 34.3663 108.582 32.1705 107.755 31.7033C106.958 31.2531 105.707 33.1427 105.707 33.1427L105.266 33.7552C105.256 33.7686 105.243 33.7792 105.228 33.7859C105.213 33.7926 105.196 33.7951 105.179 33.7931L103.002 33.551C103.002 33.551 103.002 33.551 103.002 33.5445L103.087 33.4293C103.12 33.3851 103.14 33.3332 103.146 33.2787C103.153 33.2242 103.145 33.1689 103.123 33.1184C103.102 33.0679 103.067 33.0239 103.024 32.9908C102.98 32.9576 102.928 32.9365 102.874 32.9294L102.779 32.9177C102.723 32.9105 102.665 32.9189 102.612 32.942C102.56 32.965 102.514 33.0018 102.481 33.0485L102.348 33.2566C102.322 33.2911 102.308 33.3327 102.307 33.3757C102.306 33.3883 102.303 33.4007 102.298 33.412C102.292 33.4234 102.284 33.4334 102.274 33.4415C102.265 33.4496 102.253 33.4556 102.241 33.4592C102.229 33.4627 102.216 33.4637 102.204 33.462L100.157 33.2383C100.142 33.2365 100.127 33.2384 100.113 33.2439C100.098 33.2494 100.086 33.2582 100.076 33.2697L99.5211 33.8991C99.5108 33.9108 99.5035 33.9248 99.4999 33.9399C99.4963 33.9551 99.4966 33.9709 99.5006 33.9859C99.5046 34.0009 99.5123 34.0147 99.5229 34.0261C99.5336 34.0374 99.5469 34.046 99.5617 34.0509L101.132 34.5743L102.039 34.8753L104.002 35.5296L102.463 37.6705C102.456 37.6807 102.447 37.6893 102.436 37.6959C102.425 37.7024 102.414 37.7067 102.401 37.7084L99.1076 38.2319C99.0856 38.2356 99.0657 38.2469 99.0513 38.264C99.0369 38.281 99.0291 38.3025 99.0291 38.3248V38.8024C99.0291 38.8247 99.0369 38.8462 99.0513 38.8632C99.0657 38.8802 99.0856 38.8916 99.1076 38.8953L100.632 39.1505L102.123 39.3887C102.138 39.3914 102.153 39.398 102.166 39.4078C102.178 39.4176 102.188 39.4304 102.195 39.4449L103.33 42.1747C103.337 42.1918 103.349 42.2064 103.365 42.2166C103.38 42.2269 103.398 42.2323 103.417 42.2322H103.847C103.86 42.2323 103.873 42.2297 103.884 42.2246C103.896 42.2195 103.907 42.2121 103.915 42.2028C103.924 42.1934 103.931 42.1824 103.935 42.1704C103.939 42.1583 103.941 42.1455 103.94 42.1328L103.753 38.9006C103.752 38.8785 103.758 38.8567 103.771 38.8391L105.635 36.3789L108.463 40.0927C108.472 40.1051 108.484 40.115 108.499 40.1215C108.513 40.1279 108.528 40.1308 108.544 40.1298C108.56 40.1287 108.575 40.1238 108.588 40.1155C108.601 40.1072 108.612 40.0958 108.62 40.0822L109.035 39.352C109.042 39.3387 109.045 39.3239 109.045 39.3088C109.045 39.2938 109.042 39.2789 109.035 39.2657L108.105 37.2831Z" fill="#E63946"/>
<path d="M112.44 31.2283L128.818 28.2251C128.932 28.2041 129.041 28.1609 129.138 28.0978C129.236 28.0348 129.32 27.9532 129.386 27.8577C129.451 27.7622 129.498 27.6546 129.522 27.5412C129.546 27.4277 129.548 27.3106 129.527 27.1965C129.506 27.0824 129.463 26.9736 129.4 26.8762C129.337 26.7788 129.255 26.6947 129.16 26.6289C129.064 26.563 128.957 26.5166 128.843 26.4923C128.73 26.468 128.613 26.4663 128.499 26.4873L112.12 29.497C111.903 29.5367 111.709 29.6559 111.576 29.8314C111.442 30.0069 111.38 30.2259 111.399 30.4454C111.419 30.665 111.52 30.8691 111.683 31.0179C111.846 31.1666 112.058 31.2491 112.279 31.2492C112.333 31.2468 112.387 31.2398 112.44 31.2283Z" fill="#E63946"/>
<path d="M113.137 36.4195L129.604 33.4005C129.725 33.3877 129.842 33.35 129.948 33.2899C130.054 33.2297 130.146 33.1484 130.219 33.051C130.291 32.9535 130.343 32.8421 130.371 32.7237C130.399 32.6052 130.402 32.4823 130.38 32.3627C130.358 32.2431 130.312 32.1292 130.244 32.0284C130.176 31.9275 130.087 31.8418 129.985 31.7766C129.882 31.7114 129.767 31.668 129.647 31.6493C129.527 31.6307 129.404 31.637 129.286 31.668L112.816 34.6777C112.599 34.7174 112.405 34.8366 112.272 35.0121C112.139 35.1876 112.076 35.4066 112.095 35.6261C112.115 35.8457 112.216 36.0498 112.379 36.1986C112.542 36.3473 112.754 36.4298 112.975 36.4299C113.029 36.4317 113.083 36.4282 113.137 36.4195Z" fill="#E63946"/>
<path d="M130.361 36.8238L113.64 39.8899C113.423 39.9295 113.229 40.0488 113.095 40.2242C112.962 40.3997 112.899 40.6187 112.919 40.8383C112.938 41.0578 113.04 41.262 113.202 41.4107C113.365 41.5594 113.577 41.6419 113.798 41.6421C113.852 41.6418 113.906 41.637 113.959 41.6277L130.679 38.5616C130.909 38.5195 131.113 38.3875 131.247 38.1947C131.38 38.0019 131.431 37.7642 131.389 37.5337C131.346 37.3033 131.214 37.099 131.022 36.9659C130.829 36.8328 130.591 36.7816 130.361 36.8238Z" fill="#E63946"/>
<path d="M152.13 37.1078L149.047 20.2937C148.845 19.1945 148.215 18.2205 147.295 17.5856C146.375 16.9506 145.241 16.7066 144.141 16.9071L133.004 18.9498L95.4709 25.8317C94.3717 26.034 93.3978 26.6643 92.7628 27.5841C92.1279 28.5039 91.8838 29.638 92.0843 30.7376L95.1674 47.5517C95.2669 48.0963 95.4728 48.6159 95.7733 49.0809C96.0738 49.5459 96.4629 49.9471 96.9185 50.2616C97.3741 50.5761 97.8873 50.7978 98.4286 50.9139C98.9699 51.03 99.5288 51.0383 100.073 50.9384L137.608 44.0565L148.744 42.0137C149.843 41.8114 150.817 41.1811 151.452 40.2613C152.087 39.3415 152.331 38.2074 152.13 37.1078ZM137.146 41.5387C136.932 41.5788 136.74 41.6966 136.607 41.8696C136.475 42.0426 136.411 42.2585 136.429 42.4757L99.7553 49.2032C99.1171 49.3194 98.4588 49.1781 97.9244 48.8103C97.39 48.4424 97.0231 47.8779 96.9039 47.2403L93.8221 30.4196C93.7637 30.1036 93.7681 29.7791 93.8352 29.4648C93.9022 29.1504 94.0305 28.8524 94.2128 28.5877C94.3951 28.323 94.6278 28.0968 94.8976 27.9221C95.1674 27.7474 95.4689 27.6276 95.785 27.5695L132.454 20.8459L132.486 21.02C132.523 21.2231 132.63 21.4067 132.789 21.5391C132.947 21.6716 133.147 21.7444 133.353 21.7449C133.407 21.7448 133.461 21.7395 133.514 21.7292L133.832 23.467C133.718 23.488 133.609 23.5312 133.512 23.5942C133.415 23.6573 133.331 23.7389 133.265 23.8344C133.199 23.9299 133.152 24.0375 133.128 24.1509C133.104 24.2644 133.102 24.3815 133.123 24.4956L133.314 25.5425C133.352 25.7453 133.459 25.9287 133.617 26.0608C133.776 26.193 133.975 26.2656 134.182 26.2661C134.236 26.2658 134.29 26.261 134.343 26.2517L134.661 27.9895C134.547 28.0103 134.438 28.0534 134.34 28.1163C134.243 28.1792 134.159 28.2607 134.093 28.3561C134.027 28.4515 133.981 28.559 133.957 28.6723C133.932 28.7857 133.93 28.9028 133.951 29.0168L134.143 30.0637C134.18 30.2666 134.287 30.4501 134.445 30.5823C134.604 30.7145 134.804 30.787 135.01 30.7873C135.064 30.7877 135.118 30.7828 135.171 30.7729L135.489 32.5107C135.375 32.5317 135.266 32.5749 135.169 32.6379C135.071 32.701 134.987 32.7826 134.921 32.8781C134.855 32.9736 134.809 33.0812 134.785 33.1946C134.761 33.3081 134.759 33.4252 134.78 33.5393L134.971 34.5862C135.008 34.789 135.116 34.9724 135.274 35.1045C135.433 35.2367 135.632 35.3093 135.838 35.3098C135.892 35.3095 135.946 35.3046 135.999 35.2954L136.317 37.0332C136.203 37.054 136.094 37.0971 135.997 37.16C135.9 37.2229 135.816 37.3044 135.75 37.3998C135.684 37.4952 135.637 37.6027 135.613 37.716C135.589 37.8294 135.587 37.9465 135.608 38.0605L135.799 39.1074C135.837 39.3102 135.944 39.4936 136.102 39.6257C136.261 39.7579 136.46 39.8305 136.667 39.831C136.721 39.8314 136.775 39.8266 136.828 39.8166L137.146 41.5544V41.5387ZM138.36 25.693L137.994 23.6987C137.961 23.5182 138.001 23.3321 138.105 23.1812C138.21 23.0303 138.369 22.927 138.55 22.8939L143.212 22.0394C143.302 22.0229 143.393 22.0242 143.482 22.0432C143.571 22.0622 143.655 22.0985 143.73 22.15C143.804 22.2015 143.868 22.2673 143.918 22.3435C143.967 22.4197 144.001 22.5049 144.017 22.5942L144.384 24.5885C144.416 24.769 144.376 24.9551 144.272 25.106C144.168 25.2569 144.008 25.3602 143.827 25.3933L139.165 26.2491C138.984 26.2819 138.798 26.2418 138.647 26.1375C138.497 26.0333 138.393 25.8734 138.36 25.693ZM139.474 31.7688L139.109 29.7758C139.075 29.5953 139.115 29.409 139.219 29.2579C139.323 29.1067 139.483 29.0031 139.663 28.9697L144.326 28.1152C144.416 28.0976 144.508 28.0981 144.598 28.1166C144.688 28.1351 144.773 28.1713 144.849 28.2231C144.924 28.2748 144.989 28.3411 145.039 28.4181C145.088 28.495 145.122 28.5811 145.139 28.6713L145.504 30.6643C145.52 30.7538 145.519 30.8456 145.5 30.9345C145.481 31.0234 145.444 31.1077 145.393 31.1826C145.341 31.2575 145.275 31.3214 145.199 31.3708C145.122 31.4202 145.037 31.454 144.948 31.4704L140.279 32.3223C140.098 32.3552 139.913 32.3154 139.762 32.2117C139.611 32.1079 139.507 31.9487 139.474 31.7688ZM146.055 37.5462L141.392 38.4007C141.303 38.4173 141.211 38.4161 141.122 38.3971C141.033 38.3782 140.948 38.3418 140.874 38.2901C140.799 38.2384 140.735 38.1725 140.685 38.096C140.636 38.0196 140.602 37.9341 140.586 37.8446L140.222 35.8555C140.189 35.675 140.229 35.4888 140.333 35.3376C140.437 35.1865 140.597 35.0828 140.777 35.0494L145.441 34.1949C145.621 34.1621 145.807 34.2022 145.958 34.3065C146.109 34.4107 146.213 34.5706 146.246 34.751L146.611 36.744C146.643 36.9241 146.602 37.1095 146.498 37.2598C146.394 37.4101 146.235 37.5131 146.055 37.5462Z" fill="#E63946"/>
<path d="M120.484 49.0722L119.599 49.2371C119.369 49.2803 119.165 49.4132 119.033 49.6066C118.9 49.8 118.85 50.038 118.894 50.2683C118.937 50.4986 119.07 50.7022 119.263 50.8345C119.456 50.9668 119.694 51.0168 119.925 50.9736L120.809 50.8074C120.927 50.7896 121.039 50.7484 121.14 50.6862C121.241 50.624 121.328 50.5421 121.397 50.4454C121.466 50.3487 121.514 50.2391 121.54 50.1233C121.565 50.0074 121.567 49.8877 121.545 49.7711C121.523 49.6546 121.478 49.5436 121.412 49.4449C121.346 49.3461 121.262 49.2616 121.163 49.1964C121.063 49.1312 120.952 49.0866 120.836 49.0653C120.719 49.0439 120.599 49.0463 120.484 49.0722Z" fill="#E63946"/>
<path d="M135.455 46.2614L124.158 48.3787C124.044 48.4001 123.935 48.4438 123.837 48.5073C123.74 48.5708 123.656 48.6528 123.59 48.7488C123.525 48.8447 123.479 48.9526 123.455 49.0664C123.431 49.1802 123.429 49.2975 123.451 49.4118C123.472 49.5261 123.516 49.6351 123.579 49.7324C123.643 49.8298 123.725 49.9138 123.821 49.9794C123.917 50.0451 124.025 50.0913 124.138 50.1152C124.252 50.1392 124.37 50.1405 124.484 50.1191L135.78 48.0031C135.894 47.9818 136.003 47.9382 136.1 47.8747C136.198 47.8113 136.282 47.7293 136.348 47.6333C136.414 47.5374 136.46 47.4294 136.484 47.3156C136.508 47.2018 136.509 47.0844 136.488 46.97C136.467 46.8556 136.423 46.7466 136.36 46.6491C136.296 46.5516 136.214 46.4675 136.118 46.4017C136.022 46.3359 135.914 46.2897 135.801 46.2656C135.687 46.2415 135.569 46.2401 135.455 46.2614Z" fill="#E63946"/>
<path d="M127.795 18.0913C127.849 18.0913 127.904 18.0861 127.958 18.0756L129.729 17.7445C129.958 17.7003 130.16 17.5672 130.291 17.3743C130.423 17.1814 130.472 16.9444 130.429 16.715C130.387 16.4856 130.255 16.2825 130.063 16.1501C129.87 16.0176 129.634 15.9666 129.404 16.008L127.634 16.3404C127.418 16.3816 127.226 16.5015 127.094 16.6769C126.962 16.8522 126.9 17.0704 126.92 17.2889C126.94 17.5074 127.041 17.7106 127.202 17.859C127.364 18.0073 127.575 18.0901 127.795 18.0913Z" fill="#E63946"/>
<path d="M112.826 20.8956C112.88 20.8953 112.935 20.8905 112.989 20.8812L124.285 18.7639C124.402 18.7461 124.515 18.7049 124.616 18.6427C124.717 18.5805 124.804 18.4986 124.873 18.4019C124.941 18.3052 124.99 18.1956 125.015 18.0798C125.041 17.9639 125.042 17.8442 125.02 17.7276C124.999 17.611 124.953 17.5001 124.888 17.4014C124.822 17.3026 124.737 17.2181 124.638 17.1529C124.539 17.0877 124.428 17.0431 124.311 17.0217C124.195 17.0004 124.075 17.0028 123.959 17.0287L112.663 19.1447C112.448 19.1859 112.255 19.306 112.123 19.4814C111.991 19.6569 111.929 19.8752 111.95 20.0938C111.97 20.3124 112.071 20.5157 112.233 20.6639C112.395 20.8121 112.606 20.8947 112.826 20.8956Z" fill="#E63946"/>
<path d="M106.243 22.1296C106.297 22.1298 106.351 22.125 106.404 22.1152L109.339 21.5656C109.57 21.5234 109.774 21.3914 109.907 21.1987C110.04 21.0059 110.091 20.7681 110.049 20.5377C110.007 20.3072 109.875 20.103 109.682 19.9699C109.49 19.8367 109.252 19.7856 109.021 19.8278L106.088 20.3774C105.87 20.4171 105.676 20.5365 105.543 20.7123C105.409 20.8881 105.347 21.1074 105.367 21.3271C105.387 21.5468 105.489 21.751 105.652 21.8996C105.815 22.0481 106.028 22.1301 106.248 22.1296H106.243Z" fill="#E63946"/>
</svg>
